<svg width="1001" height="501" viewBox="0 0 1001 501" fill="none" xmlns="http://www.w3.org/2000/svg">
<rect x="0.369507" y="0.695557" width="1000" height="500" fill="#202F3F"/>
<path d="M220.609 97.933C220.111 99.4537 220.222 100.806 221.039 101.158C221.784 101.437 221.99 102.108 221.446 102.651C220.826 103.272 221.273 103.409 222.41 103.15C224.004 102.726 224.073 102.949 222.831 104.191C221.977 105.045 221.809 105.652 222.334 105.712C222.864 105.621 225.795 103.275 228.89 100.472C231.99 97.518 235.149 95.0897 235.985 94.8389C236.898 94.5105 236.903 94.3598 236.081 94.1584C235.108 93.9616 235.505 93.2721 237.655 91.8527C239.733 90.3601 240.203 89.7438 239.23 89.5469C238.408 89.3456 238.275 88.7472 238.973 88.0488C239.594 87.4279 239.777 86.3684 239.498 85.6238C238.999 84.6599 239.465 84.1942 241.515 83.606C244.475 82.8401 247.492 80.1148 246.542 79.1644C246.176 78.7988 246.738 77.6527 247.824 76.5662C249.376 75.014 249.828 75.0005 249.934 76.5032C250.086 78.9833 252.908 77.7697 254.966 74.3954C256.787 71.4047 258.185 72.4924 256.515 75.4786C255.319 77.6977 255.319 77.6977 257.452 76.8812C259.434 76.0691 259.507 76.1422 258.265 77.3839C257.562 78.2331 257.225 79.4479 257.508 80.0417C257.86 80.8594 256.674 82.7771 254.428 84.877C252.565 86.7396 251.068 88.9678 251.196 89.7168C251.324 90.4659 251.197 92.2014 250.782 93.4938C250.112 95.7725 250.112 95.7725 251.582 94.4487C252.746 93.2846 253.267 93.4949 254.487 95.4913C255.424 96.8939 263.444 105.69 272.418 115.285C285.117 128.76 290.901 134.234 298.783 140.097C309.752 148.428 315.522 151.87 316.609 150.783C317.075 150.318 318.852 151.319 320.533 153C322.882 155.038 323.325 155.326 322.095 153.631C321.154 152.38 320.742 151.037 321.13 150.649C322.76 149.019 331.957 156.198 337.249 163.042C339.854 166.579 339.991 167.026 338.059 166.18C332.856 163.926 331.709 172.092 336.889 175.1C338.223 175.813 343.574 180.698 348.765 185.888C358.054 195.023 358.351 195.164 359.757 193.466C360.93 192 361.834 191.973 363.525 193.353C365.069 194.587 366.27 194.702 367.279 193.693C369.142 191.831 370.997 192.754 376.85 198.452L381.903 203.195L377.772 197.822C375.528 194.802 372.686 191.65 371.434 190.708C370.178 189.917 368.665 187.628 368.043 185.765C367.215 183.23 364.236 179.629 355.906 171.144L344.798 159.881L353.383 167.379C367.839 179.973 366.958 179.247 365.458 176.506C364.745 175.172 362.926 173.043 361.231 171.813C359.614 170.506 358.019 168.446 357.754 167.249C357.214 165.157 357.214 165.157 358.607 166.395C359.412 167.2 361.33 168.497 363.039 169.275C364.67 170.13 368.868 173.242 372.396 176.148C376.805 179.781 378.504 180.86 377.946 179.371L377.105 177.288L378.722 178.595C381.002 180.409 398.361 196.681 403.99 202.31C408.674 206.838 408.747 206.911 406.594 203.362C405.374 201.365 397.582 192.488 389.412 183.696C381.091 174.91 374.835 167.567 375.365 167.476C375.972 167.308 375.917 166.632 375.332 166.047C374.674 165.389 374.551 164.489 374.939 164.101C375.404 163.635 374.911 162.521 373.96 161.57C373.01 160.62 372.452 159.131 372.849 158.441C373.173 157.679 373.031 157.382 372.488 157.925C371.794 158.473 370.766 157.6 369.326 155.384C368.101 153.538 363.272 148.864 358.794 145.007C354.316 141.15 346.695 134.15 341.943 129.398C337.113 124.723 333.074 121.305 332.983 121.835C332.892 122.364 330.625 120.098 328.085 116.936C325.548 113.624 318.534 106.455 312.453 100.839C306.371 95.2228 298.242 87.5598 294.441 83.7581C290.561 80.034 286.449 76.5428 285.335 76.049C284.22 75.5552 280.808 73.8501 277.843 72.2821C271.246 68.7897 268.981 69.0079 272.636 72.6634C274.683 74.7105 275.579 74.9849 276.062 73.9164C276.546 72.8479 277.669 73.0402 279.885 74.4799C283.869 77.2221 283.829 78.5786 279.676 76.4438C277.232 75.0862 276.931 75.0952 278.023 76.3425C280.138 78.6134 277.18 81.8639 274.517 80.287C273.48 79.7156 272.575 79.7426 272.407 80.35C271.992 81.6423 271.261 80.9112 270.14 78.0836C269.724 76.8914 269.765 75.5349 270.386 74.914C270.929 74.3708 270.965 73.165 270.316 72.2056C269.744 71.1686 269.146 71.0359 268.895 71.8716C268.722 72.6297 268.042 72.7253 267.457 72.1404C266.799 71.4824 265.821 71.4363 265.356 71.9019C264.735 72.5228 263.25 71.8142 261.422 69.9864C259.595 68.1587 258.886 66.674 259.507 66.0532C260.904 64.6562 259.428 63.6462 255.962 63.7496C252.194 63.8621 246.542 69.0753 247.525 71.4553C248.298 73.3145 243.55 78.5007 241.38 78.0385C240.631 77.9102 240.49 77.6133 241.17 77.5177C241.777 77.349 243.256 75.7237 244.365 73.8836C245.785 71.7331 242.228 74.8509 234.08 82.9997C226.479 90.4546 221.256 96.4079 220.609 97.933ZM268.578 77.4526C269.149 78.4896 269.497 79.458 269.342 79.6133C269.187 79.7685 268.373 79.2657 267.569 78.4615C266.765 77.6573 266.417 76.6889 266.805 76.3008C267.194 75.9128 268.007 76.4156 268.578 77.4526ZM257.773 88.8429C258.577 89.6471 257.395 91.4141 256.271 91.2218C255.673 91.0891 255.618 90.4131 256.238 89.7922C256.937 89.0938 257.626 88.6967 257.773 88.8429ZM262.227 90.9687C262.825 91.1015 263.182 91.7685 263.008 92.5265C262.84 93.1339 262.159 93.2295 261.574 92.6446C260.258 91.3287 260.505 90.6437 262.227 90.9687ZM353.24 144.42C353.738 145.384 352.998 144.954 351.609 143.565C350.22 142.176 349.79 141.436 350.681 141.861C351.567 142.437 352.737 143.607 353.24 144.42ZM345.677 165.727C347.391 168.838 347.391 168.838 344.407 165.389C340.404 160.765 339.833 159.728 342.122 161.24C343.154 161.963 344.827 163.946 345.677 165.727ZM354.483 165.841C355.278 166.946 354.392 166.371 352.564 164.543C350.736 162.715 350.16 161.829 351.193 162.551C352.299 163.346 353.761 164.808 354.483 165.841ZM350.442 167.543C351.026 168.127 350.931 168.808 350.323 168.977C349.565 169.15 348.898 168.793 348.766 168.195C348.441 166.473 349.126 166.227 350.442 167.543ZM346.235 177.305C346.381 177.452 346.13 178.287 345.802 179.201C345.4 180.041 344.711 180.438 344.345 180.072C343.907 179.634 344.158 178.798 344.779 178.177C345.399 177.556 346.089 177.159 346.235 177.305ZM386.004 181.841C387.019 183.166 386.059 182.517 384.085 180.543C382.038 178.496 381.316 177.463 382.349 178.185C383.454 178.98 385.063 180.589 386.004 181.841Z" fill="#AE6D63"/>
<path d="M197.989 121.723C197.345 123.097 197.227 124.531 197.593 124.897C198.031 125.335 197.634 126.025 196.794 126.426C195.881 126.755 195.557 127.517 196.069 128.029C197.312 129.272 200.612 124.656 203.29 118.176L205.247 113.149L202.142 116.253C200.435 117.96 198.554 120.426 197.989 121.723Z" fill="#AE6D63"/>
<path d="M215.619 103.653C216.464 103.101 217.55 102.015 217.947 101.325C218.194 100.64 217.504 101.037 216.185 102.357C214.943 103.598 214.624 104.21 215.619 103.653Z" fill="#AE6D63"/>
<path d="M152.47 168.557C149.818 171.648 147.682 175.1 147.577 176.082C147.61 177.511 147.829 177.731 148.605 176.955C149.149 176.411 149.596 176.549 149.802 177.22C149.935 177.818 148.52 179.818 146.735 181.603C144.877 183.315 143.955 183.945 144.589 182.872C146.488 179.804 146.167 177.931 143.994 180.104C142.519 181.578 142.218 181.587 142.564 180.071C142.829 178.783 141.053 180.267 136.766 185.138C133.338 189.005 122.665 200.994 113.079 211.896C94.3813 232.933 85.9367 243.425 84.7052 246.85C84.3677 248.065 82.4095 250.608 80.3872 252.776L76.7397 256.424L82.5839 262.423C85.8739 265.713 93.0982 273.403 98.6365 279.562C105.052 286.599 108.57 289.807 108.008 288.468C107.592 287.276 105.426 284.178 103.091 281.688C99.6589 278.101 99.4486 277.581 101.737 279.093C103.286 280.176 105.077 280.725 105.538 280.41C106.077 280.018 107.191 280.512 108.069 281.389C108.868 282.344 109.691 282.545 109.855 282.089C109.946 281.559 109.306 280.298 108.356 279.348C107.405 278.397 106.692 277.063 106.938 276.378C107.107 275.771 105.96 273.847 104.351 272.239C102.816 270.704 101.811 269.077 102.199 268.689C102.587 268.301 105.013 270.262 107.64 273.044C110.263 275.978 113.493 278.742 114.827 279.456C117.052 280.594 116.979 280.521 114.863 278.25C113.625 276.856 112.181 274.791 111.915 273.594C111.572 272.475 110.43 270.401 109.191 269.008C105.7 264.896 107.298 264.321 111.319 268.342C113.659 270.681 114.591 272.235 113.833 272.408C112.317 272.754 113.921 274.513 116.241 274.971C117.589 275.232 117.387 274.41 115.733 271.824L113.502 268.352L116.97 270.733C118.889 272.031 124.171 276.692 128.63 281.152C134.337 286.704 138.088 289.679 140.843 290.726C142.926 291.567 145.804 293.514 147.111 295.131C149.433 298.074 149.506 298.147 146.824 297.173C144.065 296.276 144.065 296.276 146.405 298.616C147.643 300.01 149.128 300.718 149.516 300.33C149.982 299.864 151.389 300.651 152.632 301.893C154.459 303.721 154.519 304.246 153.172 303.986C151.897 303.798 154.15 306.516 160.145 312.511C164.97 317.336 169.443 321.344 170.046 321.326C172.458 321.254 181.221 327.844 179.321 328.428C178.563 328.601 177.078 327.892 176.055 326.869C174.958 325.772 174.067 325.347 174.127 325.872C174.036 326.402 175.416 328.093 177.024 329.701C179.149 331.67 179.853 333.306 179.511 334.671C178.927 336.571 178.927 336.571 180.32 335.325C181.329 334.316 182.297 334.663 184.783 337.149C186.538 338.904 191.303 343.204 195.338 346.773C199.45 350.264 202.223 353.193 201.621 353.211C201.018 353.229 200.461 354.224 200.503 355.352C200.431 357.764 204.877 362.676 205.31 360.78C205.479 360.173 206.013 359.931 206.378 360.297C206.817 360.735 206.639 361.644 206.018 362.265C205.398 362.886 205.439 364.014 206.097 364.672C207.194 365.769 207.112 365.997 205.54 365.667C204.568 365.471 202.576 364.099 201.186 362.71C199.066 360.59 199.075 360.289 200.788 360.915C202.798 361.683 202.876 361.606 201.267 359.997C199.883 358.458 195.991 357.67 195.06 358.602C194.594 359.067 208.566 370.245 212.486 372.613C216.036 374.766 216.036 374.766 212.001 371.197C209.506 369.012 208.492 367.687 209.465 367.884C210.588 368.077 210.602 367.624 209.363 366.231C208.418 365.13 210.19 366.282 213.429 368.745C220.863 374.471 226.647 377.461 226.335 375.286C226.065 374.24 226.366 374.231 227.312 375.332C227.961 376.292 232.517 380.071 237.524 383.837C242.458 387.529 246.42 391.025 246.402 391.628C246.388 392.08 245.278 391.436 243.889 390.047C241.988 388.146 241.463 388.086 241.724 389.434C241.976 391.083 241.898 391.16 240.948 390.21C240.066 389.483 239.906 389.789 240.076 391.666C240.242 393.694 240.082 394 239.278 393.196C238.62 392.538 237.565 392.569 236.944 393.19C236.012 394.122 237.319 395.739 245.224 403.333C250.346 408.3 254.719 413.139 254.921 413.961C255.045 414.861 256.63 417.223 258.376 419.279C260.199 421.258 261.794 423.318 262.155 423.834C263.659 426.425 269.1 428.295 274.306 427.914L279.969 427.368L292.486 414.12C299.48 406.834 305.469 400.406 305.857 400.018C307.725 398.005 328.013 379.179 333.35 374.426C337.833 370.528 339.243 368.679 339.138 367.176C339.032 365.674 338.657 365.61 337.338 366.929C336.484 367.783 335.416 368.266 335.05 367.901C334.246 367.096 335.378 364.503 337.943 361.791C339.655 359.933 339.431 359.864 336.664 361.754C333.747 363.648 333.669 363.726 335.463 361.639C338.887 357.923 336.329 357.849 331.549 361.605C327.696 364.581 327.088 364.75 328.279 362.682L329.708 360.23L327.617 362.175C326.147 363.498 324.859 363.763 323.598 363.123C322.045 362.19 321.049 362.747 317.79 366.006C315.462 368.335 313.49 371.33 313.066 372.924C312.628 374.97 311.528 376.508 309.688 377.617C307.387 379.041 307.163 378.973 307.523 377.004C307.801 375.264 307.586 374.894 306.518 375.378C305.755 375.702 305.924 375.094 307.01 374.008C308.489 372.383 308.498 372.081 306.982 372.428C305.996 372.683 305.397 372.55 305.785 372.162C306.173 371.774 305.05 371.582 303.237 371.787L299.989 372.109L302.167 369.786C304.107 367.845 304.039 367.622 302.207 368.429C300.682 369.077 300.308 369.013 301.088 368.086C301.636 367.392 300.659 367.346 298.828 368.154L295.476 369.458L298.119 366.669C300.059 364.729 300.306 364.044 299.1 364.08C297.743 364.12 296.648 365.508 294.722 369.481C292.719 373.531 292.537 374.59 293.989 373.87C295.131 373.459 293.798 375.23 291.004 378.024C287.274 381.9 285.585 383.005 283.936 382.753C282.059 382.583 281.698 382.067 282.053 380.249C282.322 378.811 282.107 378.44 281.335 379.066C280.792 379.609 278.893 380.193 277.084 380.247C274.444 380.401 273.138 381.268 269.865 384.98L265.816 389.467L262.371 386.333C260.388 384.66 257.304 382.042 255.312 380.671C252.073 378.207 251.698 378.143 249.671 380.463C248.503 381.777 247.859 383.152 248.22 383.668C248.586 384.034 247.983 384.052 246.791 383.636C244.854 382.94 244.85 383.091 246.677 384.919C250.836 389.388 246.455 387.335 241.182 382.372C238.18 379.526 234.579 376.546 233.25 375.682C231.847 374.745 231.125 373.713 231.591 373.247C231.979 372.859 234.058 373.851 236.114 375.597L239.856 378.873L235.917 374.624C233.728 372.28 231.991 369.922 232.009 369.32C232.1 368.79 231.753 367.821 231.319 367.232C230.885 366.643 229.472 363.523 228.064 360.252C225.672 354.601 221.14 350.068 219.51 351.698C219.122 352.086 218.382 351.656 217.879 350.843C214.437 345.073 214.072 344.708 214.767 346.644C215.466 348.431 215.238 348.513 212.548 347.84C210.382 347.227 209.624 347.4 209.817 348.524C210.087 349.57 209.708 349.657 208.611 348.56C207.734 347.683 206.532 347.568 205.912 348.189C205.135 348.965 205.478 350.084 207.014 351.619C208.476 353.081 208.755 353.826 207.7 353.857C206.796 353.884 202.236 350.256 197.397 345.883C188.163 337.425 187.596 336.237 195.998 342.311C200.64 345.711 200.864 345.779 198.017 342.777C196.335 341.096 195.412 339.241 195.8 338.853C196.266 338.388 195.406 336.907 193.944 335.445C192.555 334.056 191.764 332.8 192.299 332.558C192.828 332.467 186.833 326.472 179.143 319.247C171.303 312.028 163.54 304.73 161.707 303.053C159.656 301.157 158.171 300.448 157.55 301.069C156.852 301.768 155.006 300.543 150.98 296.672C147.832 293.679 145.799 291.18 146.255 291.016C146.785 290.925 144.929 287.517 142.109 283.611C139.29 279.704 137.434 276.296 137.89 276.132C138.42 276.041 138.082 274.771 137.149 273.218C136.29 271.738 135.663 270.025 135.832 269.417C135.928 268.737 132.656 264.844 128.489 260.677C124.321 256.509 121.049 252.617 121.218 252.009C121.387 251.402 122.957 249.247 124.897 247.307C126.924 244.988 127.873 243.453 127.124 243.325C126.375 243.197 127.854 241.572 131.173 238.837C134.104 236.491 136.282 234.167 136.149 233.569C135.746 231.925 139.193 227.455 146.812 219.397C150.541 215.521 152.732 212.745 151.659 213.38C150.591 213.863 146.715 217.593 143.132 221.615C136.823 228.655 136.517 228.815 132.909 228.621C129.976 228.483 128.602 229.126 126.653 231.368C125.174 232.993 124.38 234.372 124.905 234.432C125.353 234.569 126.353 233.861 126.982 232.939C127.612 232.017 128.918 231.15 129.904 230.894C131.042 230.635 129.864 232.251 126.604 235.51C123.811 238.304 120.382 242.171 119.045 244.093C117.082 246.787 116.393 247.184 116.201 246.06C115.999 245.238 116.56 244.092 117.556 243.535C118.706 242.823 118.962 241.837 118.317 240.727C117.458 239.247 118.092 238.174 121.662 234.604C124.068 232.198 125.789 230.038 125.423 229.673C125.131 229.38 121.958 232.261 118.306 236.059C112.399 242.259 111.938 242.574 114.768 238.574C116.497 236.113 121.414 230.32 125.618 225.677C129.818 221.184 133.333 216.938 133.497 216.482C133.666 215.874 135.848 213.4 138.258 210.843C144.786 204.023 143.818 203.675 136.993 210.354C132.651 214.549 131.729 215.179 133.381 212.796C134.641 210.951 135.142 209.28 134.475 208.923C133.886 208.489 134.219 207.425 135.15 206.494C136.625 205.019 136.849 205.088 136.502 206.604C136.16 207.97 137.466 207.102 140.652 203.77C143.757 200.666 144.546 199.437 143.172 200.081L141.035 201.048L142.221 199.13C143.098 197.523 142.869 197.605 141.166 199.162C139.925 200.403 138.632 200.818 138.349 200.225C137.915 199.635 136.157 200.516 133.915 202.465C131.902 204.332 129.057 206.299 127.532 206.947L124.861 208.156L127.034 205.983C128.203 204.668 129.544 202.596 129.959 201.303C130.621 199.326 130.854 199.093 131.42 200.281C131.837 201.473 132.526 201.076 134.169 198.994C139.574 191.981 157.158 172.935 158.989 172.127C159.679 171.73 160.35 171.936 160.483 172.534C160.616 173.133 161.529 172.804 162.465 171.722C163.474 170.713 163.565 170.184 162.88 170.43C160.359 171.635 160.189 169.757 162.582 167.804C163.892 166.786 167.325 162.768 170.228 158.842C173.204 154.988 174.395 152.92 172.925 154.244C171.377 155.645 170.153 156.284 170.025 155.535C169.819 154.863 168.984 155.114 168.13 155.968C166.888 157.21 166.212 157.154 165.792 156.113C165.088 154.478 161.992 157.28 152.47 168.557ZM154.549 169.549C155.147 169.682 155.125 170.436 154.348 171.212C153.262 172.298 153.331 172.522 154.618 172.258C155.911 171.843 155.975 172.217 155.103 173.674C154.469 174.747 153.232 175.838 152.323 176.015C150.957 176.357 150.966 176.056 152.13 174.892C153.295 173.728 153.304 173.426 151.938 173.768C150.573 174.11 150.431 173.813 151.303 172.357C153.124 169.366 153.352 169.284 154.549 169.549ZM137.158 192.204C137.144 192.656 136.519 193.428 135.756 193.752C134.916 194.153 134.93 193.701 135.783 192.847C136.564 191.921 137.249 191.674 137.158 192.204ZM143.366 185.995C143.353 186.447 142.728 187.219 141.965 187.543C141.125 187.945 141.138 187.492 141.992 186.639C142.773 185.712 143.458 185.466 143.366 185.995ZM120.176 211.232C120.309 211.831 119.976 212.895 119.511 213.36C118.967 213.904 118.752 213.534 119.012 212.397C119.609 210.045 119.92 209.734 120.176 211.232ZM127.175 203.796C126.545 204.718 125.148 206.115 124.07 206.9C122.915 207.763 123.39 206.996 125.097 205.288C126.731 203.508 127.654 202.878 127.175 203.796ZM131.994 206.287C131.597 206.976 130.511 208.063 129.666 208.615C128.671 209.172 128.99 208.56 130.232 207.318C131.551 205.999 132.24 205.602 131.994 206.287ZM128.443 211.739C129.115 211.944 128.877 212.328 128.037 212.73C126.129 213.615 125.384 213.336 126.47 212.249C126.936 211.784 127.772 211.533 128.443 211.739ZM122.128 224.049L117.061 229.847L124.338 223.155L131.542 216.39L125.53 223.571C122.253 227.433 118.916 230.771 118.084 230.871C116.723 231.062 116.112 231.381 114.482 233.011C114.016 233.477 113.642 233.413 113.66 232.81C113.632 231.229 121.118 222.573 124.428 220.141C126.277 218.73 125.561 220.031 122.128 224.049ZM85.8356 261.95C86.1877 262.767 85.7355 262.781 84.9313 261.977C84.0495 261.25 83.8437 260.579 84.3689 260.638C84.8211 260.625 85.5567 261.205 85.8356 261.95ZM116.65 241.078C117.016 241.443 116.916 242.275 116.295 242.895C115.674 243.516 114.533 243.927 113.934 243.794C113.263 243.588 113.436 242.83 114.29 241.976C115.221 241.045 116.212 240.639 116.65 241.078ZM134.275 230.764C135.563 230.5 133.614 232.741 128.263 237.945C121.128 244.935 120.822 245.094 124.574 240.465C131.138 232.439 132.302 231.275 134.275 230.764ZM102.974 275.518C104.509 277.053 104.861 277.871 103.806 277.902C103.052 277.925 101.874 277.056 101.156 275.873C99.588 272.908 100.269 272.813 102.974 275.518ZM161.146 304.199C161.731 304.784 161.859 305.533 161.393 305.999C161.005 306.387 159.959 306.117 159.082 305.24C158.278 304.435 158.227 303.609 158.835 303.44C159.52 303.194 160.561 303.614 161.146 304.199ZM168.528 316.703C169.323 317.809 168.437 317.233 166.609 315.405C164.781 313.578 164.205 312.691 165.238 313.413C166.344 314.209 167.806 315.671 168.528 316.703ZM181.941 323.907C183.467 325.744 181.781 324.213 178.199 320.631C174.543 316.975 173.305 315.582 175.361 317.327C177.417 319.073 180.414 322.071 181.941 323.907ZM208.283 359.562C208.781 360.526 208.041 360.096 206.652 358.707C205.263 357.318 204.833 356.578 205.724 357.003C206.61 357.579 207.78 358.749 208.283 359.562ZM210.765 354.594C211.363 354.727 211.574 355.248 211.186 355.636C210.72 356.101 209.966 356.124 209.601 355.758C209.162 355.32 209.025 354.872 209.18 354.717C209.413 354.484 210.093 354.388 210.765 354.594ZM251.738 404.57C252.09 405.387 251.638 405.401 250.833 404.596C249.952 403.87 249.746 403.198 250.271 403.258C250.723 403.245 251.459 403.825 251.738 404.57ZM292.731 380.683C293.33 380.816 293.221 381.949 292.436 383.026C291.176 384.871 291.254 384.793 293.262 383.077C296.207 380.278 296.738 382.672 293.789 385.621C290.607 388.803 288.401 389.546 286.866 388.011C285.769 386.914 286.02 386.079 288.504 383.595C290.211 381.888 292.056 380.628 292.731 380.683ZM291.804 389.068C292.553 389.197 292.147 390.187 290.983 391.352C289.818 392.516 288.828 392.922 288.699 392.173C288.493 391.501 288.9 390.51 289.52 389.889C290.141 389.269 291.132 388.862 291.804 389.068ZM316.368 373.277C315.072 376.327 313.598 377.802 313.264 376.381C313.058 375.71 313.93 374.253 315.167 373.162C317.03 371.3 317.18 371.295 316.368 373.277Z" fill="#AE6D63"/>
<path d="M209.051 111.83C211.402 111.233 208.975 116.877 206.062 118.62C204.528 119.57 203.734 120.949 203.616 122.383C203.553 124.493 203.777 124.561 205.612 123.603C206.608 123.046 207.858 121.503 208.347 120.284C208.762 118.992 210.336 116.686 211.811 115.211C213.363 113.659 214.239 112.052 213.874 111.686C213.435 111.248 214.462 109.636 216.018 107.933L218.89 105.062L213.986 107.918C208.393 111.172 206.849 112.423 209.051 111.83Z" fill="#AE6D63"/>
<path d="M233.407 100.487C234.485 99.7023 235.882 98.3054 236.511 97.3831C236.991 96.4653 236.068 97.0951 234.434 98.8756C232.727 100.583 232.252 101.35 233.407 100.487Z" fill="#AE6D63"/>
<path d="M144.561 191.381C144.306 192.367 142.891 194.367 141.416 195.841C137.613 199.644 139.139 198.996 144.617 194.541C147.165 192.432 148.639 190.958 147.799 191.359C146.731 191.843 146.511 191.624 146.771 190.486C147.022 189.651 146.661 189.134 146.053 189.303C145.446 189.472 144.743 190.321 144.561 191.381Z" fill="#AE6D63"/>
<path d="M204.091 131.705C205.702 130.678 208.031 128.35 209.135 126.66C210.637 124.281 210.025 124.601 205.989 128.636C201.953 132.672 201.634 133.284 204.091 131.705Z" fill="#AE6D63"/>
<path d="M220.945 114.412C221.557 114.092 222.488 113.161 222.885 112.472C223.131 111.787 222.597 112.028 221.511 113.115C220.424 114.201 220.182 114.736 220.945 114.412Z" fill="#AE6D63"/>
<path d="M159.978 176.841C160.823 176.289 162.064 175.047 162.694 174.125C163.173 173.207 162.406 173.682 160.932 175.156C159.457 176.631 158.982 177.398 159.978 176.841Z" fill="#AE6D63"/>
<path d="M165.41 171.409C166.255 170.856 167.342 169.77 167.739 169.08C167.985 168.395 167.295 168.792 165.976 170.112C164.734 171.353 164.415 171.965 165.41 171.409Z" fill="#AE6D63"/>
<path d="M176.619 161.663C177.381 161.339 178.006 160.567 178.02 160.115C178.111 159.585 177.426 159.831 176.646 160.758C175.792 161.612 175.778 162.064 176.619 161.663Z" fill="#AE6D63"/>
<path d="M239.301 104.829C240.063 104.505 240.689 103.733 240.702 103.281C240.793 102.752 240.108 102.998 239.328 103.925C238.474 104.778 238.461 105.23 239.301 104.829Z" fill="#AE6D63"/>
<path d="M243.893 99.798C244.551 100.456 247.245 98.4933 247.048 97.5203C246.92 96.7713 246.084 97.0221 245.231 97.8758C244.299 98.807 243.747 99.6517 243.893 99.798Z" fill="#AE6D63"/>
<path d="M148.41 198.644C149.487 197.859 151.04 196.307 151.902 195.152C152.687 194.074 151.765 194.704 149.825 196.644C147.885 198.585 147.255 199.507 148.41 198.644Z" fill="#AE6D63"/>
<path d="M170.916 176.138C171.528 175.819 172.459 174.887 172.856 174.198C173.103 173.513 172.568 173.755 171.482 174.841C170.395 175.928 170.154 176.462 170.916 176.138Z" fill="#AE6D63"/>
<path d="M273.525 78.2084C274.256 78.9395 276.827 78.5616 276.927 77.7304C276.859 77.5066 275.963 77.2322 274.831 77.3412C273.698 77.4503 273.159 77.8429 273.525 78.2084Z" fill="#AE6D63"/>
<path d="M242.583 110.905C243.022 111.344 242.775 112.029 242.013 112.353C240.561 113.073 239.178 116.503 240.311 116.394C240.69 116.307 242.557 114.294 244.36 111.906C246.241 109.441 246.957 108.139 246.03 108.92L244.332 110.326L245.226 108.116C246.038 106.134 245.887 106.138 244.025 108.001C242.71 109.169 242.144 110.466 242.583 110.905Z" fill="#AE6D63"/>
<path d="M169.004 189.748C169.767 189.424 170.392 188.652 170.406 188.2C170.497 187.67 169.812 187.916 169.031 188.843C168.177 189.697 168.164 190.149 169.004 189.748Z" fill="#AE6D63"/>
<path d="M121.618 238.595C122.23 238.276 123.162 237.345 123.559 236.655C123.805 235.97 123.271 236.212 122.184 237.299C121.098 238.385 120.856 238.919 121.618 238.595Z" fill="#AE6D63"/>
<path d="M135.388 226.288C135.945 227.778 136.096 227.773 136.214 226.339C136.246 225.284 135.894 224.466 135.442 224.48C134.989 224.493 134.889 225.325 135.388 226.288Z" fill="#AE6D63"/>
<path d="M150.333 209.881C151.096 209.557 151.721 208.785 151.735 208.333C151.826 207.803 151.141 208.05 150.36 208.976C149.507 209.83 149.493 210.282 150.333 209.881Z" fill="#AE6D63"/>
<path d="M251.913 108.594C250.334 111.05 250.402 111.274 252.083 110.471C253.457 109.827 254.169 108.677 254.214 107.17C254.25 105.964 254.199 105.137 254.044 105.292C253.884 105.598 252.94 106.982 251.913 108.594Z" fill="#AE6D63"/>
<path d="M138.259 223.417C139.104 222.865 140.19 221.778 140.587 221.089C140.834 220.404 140.144 220.801 138.825 222.12C137.583 223.362 137.264 223.974 138.259 223.417Z" fill="#AE6D63"/>
<path d="M174.302 188.837C175.845 187.586 177.94 185.49 178.958 184.18C179.976 182.87 178.666 183.888 176.105 186.449C173.544 189.01 172.759 190.087 174.302 188.837Z" fill="#AE6D63"/>
<path d="M240.268 122.87C241.031 122.546 241.656 121.775 241.67 121.322C241.761 120.793 241.076 121.039 240.295 121.966C239.442 122.819 239.428 123.272 240.268 122.87Z" fill="#AE6D63"/>
<path d="M151.616 217.371C152.378 217.048 153.003 216.276 153.017 215.824C153.108 215.294 152.423 215.54 151.643 216.467C150.789 217.321 150.775 217.773 151.616 217.371Z" fill="#AE6D63"/>
<path d="M117.403 299.105C119.67 301.371 120.341 301.577 119.779 300.239C119.006 298.38 115.186 295.181 114.565 295.802C114.41 295.957 115.644 297.501 117.403 299.105Z" fill="#AE6D63"/>
<path d="M126.282 309.381C127.676 310.619 128.978 312.387 129.102 313.287C129.299 314.26 129.669 314.475 129.764 313.794C129.933 313.187 135.283 318.072 142.585 325.684C151.199 334.763 155.306 338.405 155.85 337.862C156.315 337.396 155.68 335.985 154.437 334.742C153.194 333.499 152.7 332.384 153.458 332.211C154.143 331.965 154.166 331.211 153.435 330.48C149.066 325.491 147.161 323.741 146.101 323.923C145.494 324.092 142.109 321.482 138.668 318.197C135.3 314.984 130.832 310.826 128.78 308.93C126.879 307.029 124.878 305.959 124.49 306.347C124.025 306.813 124.811 308.22 126.282 309.381Z" fill="#AE6D63"/>
<path d="M145.47 302.183C146.64 303.352 147.234 303.636 146.736 302.672C146.233 301.859 145.209 300.835 144.542 300.479C143.871 300.273 144.227 300.94 145.47 302.183Z" fill="#AE6D63"/>
<path d="M154.628 293.025C155.213 293.61 156.035 293.811 156.501 293.345C156.889 292.957 156.532 292.29 155.715 291.938C154.819 291.664 153.997 291.462 153.842 291.618C153.687 291.773 154.043 292.44 154.628 293.025Z" fill="#AE6D63"/>
<path d="M138.671 315.561C139.695 316.585 140.216 316.795 139.937 316.051C139.653 315.457 138.776 314.58 138.109 314.223C137.437 314.017 137.648 314.538 138.671 315.561Z" fill="#AE6D63"/>
<path d="M149.857 306.569C151.027 307.739 151.62 308.022 151.122 307.058C150.619 306.245 149.596 305.222 148.929 304.865C148.257 304.659 148.614 305.326 149.857 306.569Z" fill="#AE6D63"/>
<path d="M165.617 303.238C169.716 307.181 173.535 310.38 174.06 310.439C174.59 310.348 171.752 307.045 167.658 302.951C163.637 298.93 159.818 295.731 159.288 295.822C158.68 295.991 161.591 299.367 165.617 303.238Z" fill="#AE6D63"/>
<path d="M156.701 321.95C156.578 323.535 159.224 325.715 160.078 324.861C160.543 324.395 160.049 323.281 159.026 322.257C157.125 320.356 156.751 320.292 156.701 321.95Z" fill="#AE6D63"/>
<path d="M164.241 321.574C164.119 323.159 168.291 327.176 170.387 327.565C171.287 327.689 171.821 327.447 171.762 326.922C171.208 325.282 164.2 320.446 164.241 321.574Z" fill="#AE6D63"/>
<path d="M177.328 314.483C177.804 316.2 191.26 329.502 192.69 329.535C193.366 329.59 194.855 330.148 195.892 330.719C196.852 331.368 193.269 327.786 187.85 322.677C178.255 313.702 176.706 312.619 177.328 314.483Z" fill="#AE6D63"/>
<path d="M158.679 341.467C159.031 342.285 160.05 343.459 160.936 344.035C161.973 344.606 161.84 344.008 160.538 342.24C158.518 339.288 157.622 339.014 158.679 341.467Z" fill="#AE6D63"/>
<path d="M171.597 337.467C173.571 339.441 174.531 340.09 173.516 338.765C172.575 337.513 170.966 335.905 169.861 335.11C168.828 334.388 169.55 335.42 171.597 337.467Z" fill="#AE6D63"/>
<path d="M166.318 347.865C167.341 348.888 167.862 349.098 167.583 348.354C167.3 347.76 166.422 346.883 165.756 346.526C165.084 346.32 165.294 346.841 166.318 347.865Z" fill="#AE6D63"/>
<path d="M186.124 342.681C188.317 344.874 189.423 345.669 188.408 344.344C187.467 343.092 185.712 341.338 184.387 340.323C183.135 339.382 183.93 340.487 186.124 342.681Z" fill="#AE6D63"/>
<path d="M176.446 354.113C180.284 356.709 180.964 356.613 178.186 353.835C176.943 352.592 175.39 351.66 174.705 351.906C173.947 352.079 174.601 352.888 176.446 354.113Z" fill="#AE6D63"/>
<path d="M175.822 357.369C177.211 358.758 177.951 359.188 177.453 358.224C176.95 357.41 175.78 356.241 174.894 355.665C174.003 355.24 174.433 355.98 175.822 357.369Z" fill="#AE6D63"/>
<path d="M189.554 353.872C191.748 356.065 192.853 356.86 191.839 355.535C190.897 354.284 189.143 352.529 187.818 351.514C186.566 350.573 187.361 351.679 189.554 353.872Z" fill="#AE6D63"/>
<path d="M377.287 166.139C378.311 167.162 378.832 167.373 378.553 166.628C378.269 166.034 377.392 165.157 376.725 164.8C376.053 164.595 376.264 165.115 377.287 166.139Z" fill="#AE6D63"/>
<path d="M191.613 360.587C193.806 362.78 194.911 363.575 193.897 362.25C192.955 360.998 191.201 359.244 189.876 358.229C188.624 357.288 189.419 358.394 191.613 360.587Z" fill="#AE6D63"/>
<path d="M185.683 367.54C187.218 369.075 189.941 371.177 191.718 372.178C193.495 373.179 198.645 377.242 203.118 381.25C214.705 391.595 214.705 391.595 210.939 386.588C208.979 384.162 206.425 381.452 205.091 380.739C202.573 379.308 200.983 377.097 202.426 376.678C203.184 376.504 201.283 374.603 191.761 365.702C189.563 363.66 188.746 363.307 188.18 364.604C187.701 365.522 187.016 365.768 186.358 365.11C185.846 364.599 184.804 364.178 184.119 364.424C183.361 364.598 184.001 365.858 185.683 367.54ZM194.038 370.152C194.317 370.896 193.796 370.686 192.772 369.662C191.749 368.639 191.538 368.118 192.21 368.324C192.877 368.68 193.754 369.558 194.038 370.152Z" fill="#AE6D63"/>
<path d="M386.297 192.222C387.32 193.246 387.841 193.456 387.562 192.711C387.279 192.117 386.401 191.24 385.734 190.884C385.063 190.678 385.273 191.199 386.297 192.222Z" fill="#AE6D63"/>
<path d="M396.935 183.924C398.086 185.696 401.751 189.05 404.99 191.514L411.03 196.001L403.212 188.028C398.898 183.714 395.234 180.36 395.079 180.516C394.923 180.671 395.783 182.151 396.935 183.924Z" fill="#AE6D63"/>
<path d="M205.24 378.25C205.661 379.291 206.387 380.173 206.84 380.16C208.196 380.119 207.72 378.402 206.021 377.323C204.545 376.313 204.467 376.391 205.24 378.25Z" fill="#AE6D63"/>
<path d="M209.171 375.196C210.195 376.22 210.715 376.43 210.437 375.686C210.153 375.092 209.276 374.214 208.609 373.858C207.937 373.652 208.148 374.173 209.171 375.196Z" fill="#AE6D63"/>
<path d="M213.378 385.612C214.401 386.635 214.922 386.845 214.643 386.101C214.36 385.507 213.482 384.63 212.815 384.273C212.144 384.067 212.354 384.588 213.378 385.612Z" fill="#AE6D63"/>
<path d="M393.519 215.121C394.323 215.925 394.775 215.912 394.423 215.094C394.144 214.349 393.409 213.769 392.956 213.782C392.431 213.723 392.637 214.394 393.519 215.121Z" fill="#AE6D63"/>
<path d="M230.059 399.344C230.717 400.002 230.242 400.769 228.941 401.485C227.106 402.444 227.243 402.891 231.191 406.839C234.924 410.417 235.44 410.778 235.275 408.75C235.087 407.476 235.42 406.412 235.872 406.398C237.301 406.431 234.422 401.999 231.695 400.048C230.37 399.033 229.625 398.754 230.059 399.344Z" fill="#AE6D63"/>
<path d="M236.389 399.155C238.217 400.983 239.103 401.558 238.308 400.453C237.586 399.42 236.124 397.958 235.018 397.163C233.986 396.441 234.562 397.327 236.389 399.155Z" fill="#AE6D63"/>
<path d="M241.61 410.895C242.415 411.699 242.867 411.686 242.515 410.868C242.236 410.123 241.5 409.543 241.048 409.557C240.523 409.497 240.729 410.168 241.61 410.895Z" fill="#AE6D63"/>
<path d="M283.913 373.417C283.183 375.171 283.64 375.007 286.338 372.893C288.192 371.332 290.753 368.771 292.013 366.926L294.368 363.694L290.752 366.286C286.364 369.504 285.2 370.668 283.913 373.417Z" fill="#AE6D63"/>
<path d="M244.86 415.541C245.883 416.565 246.404 416.775 246.125 416.031C245.842 415.437 244.964 414.56 244.297 414.203C243.626 413.997 243.836 414.518 244.86 415.541Z" fill="#AE6D63"/>
<path d="M304.896 354.043C305.494 354.176 307.024 353.378 308.115 352.14C309.977 350.278 309.982 350.127 308 350.939C304.95 352.235 303.475 353.709 304.896 354.043Z" fill="#AE6D63"/>
<path d="M341.981 322.368C342.743 322.044 343.369 321.273 343.382 320.821C343.473 320.291 342.788 320.537 342.008 321.464C341.154 322.318 341.141 322.77 341.981 322.368Z" fill="#AE6D63"/>
<path d="M310.013 359.161C312.392 357.66 312.073 358.271 308.343 362.147C304.686 366.096 304.289 366.786 306.426 365.819C307.801 365.175 309.422 363.847 309.978 362.851C310.855 361.244 311.001 361.39 311.833 363.775C312.313 365.342 312.492 366.917 312.027 367.383C311.639 367.771 312.159 367.981 313.146 367.726C314.132 367.471 317.218 364.969 319.939 362.102C322.733 359.309 323.988 357.615 322.833 358.477C321.756 359.262 320.696 359.445 320.563 358.846C320.431 358.248 319.006 358.065 317.489 358.411C314.612 358.949 314.612 358.949 317.178 356.237C318.812 354.456 319.054 353.922 317.903 354.634C316.83 355.268 315.237 355.692 314.341 355.418C313.368 355.221 311.533 356.179 309.899 357.96L307.1 360.905L310.013 359.161ZM317.861 361.11C317.464 361.8 316.532 362.731 315.92 363.051C315.158 363.375 315.4 362.84 316.486 361.754C317.573 360.667 318.107 360.425 317.861 361.11Z" fill="#AE6D63"/>
<path d="M345.631 323.69C346.996 323.348 347.927 322.417 348.347 320.974C348.775 319.229 348.47 319.389 346.219 321.64C343.968 323.89 343.809 324.196 345.631 323.69Z" fill="#AE6D63"/>
<path d="M382.933 287.265C384.011 286.48 385.563 284.928 386.425 283.773C387.21 282.695 386.288 283.325 384.348 285.265C382.408 287.205 381.778 288.128 382.933 287.265Z" fill="#AE6D63"/>
<path d="M408.539 261.805C405.809 264.974 406.81 266.751 409.759 263.802C410.846 262.715 411.522 262.77 411.943 263.812C412.436 264.926 413.194 264.753 414.82 263.274C416.057 262.183 417.993 260.394 419.307 259.225C421.855 257.116 421.448 255.622 418.841 257.206C417.845 257.763 418.708 256.608 420.73 254.439C425.624 249.399 425.318 249.559 427.698 250.542C429.63 251.388 429.471 251.694 422.805 258.067C412.424 267.863 411.151 270.16 420.661 261.82C428.55 254.808 428.472 254.886 418.237 264.829C412.421 270.498 408.381 274.685 409.376 274.128C411.91 272.471 412.441 274.865 410.241 277.942C408.744 280.17 409.278 279.928 413.209 276.875C415.83 274.839 420.783 270.324 424.271 266.982C427.686 263.568 431.471 260.368 432.69 259.88C433.909 259.392 434.434 259.451 433.969 259.917C433.498 260.533 433.325 261.291 433.764 261.73C434.129 262.095 434.655 262.155 435.043 261.767C436.298 260.073 436.974 260.128 437.144 262.006C437.245 263.659 437.464 263.878 438.551 262.792C439.249 262.093 439.354 261.111 438.769 260.526C437.672 259.43 438.826 256.083 440.26 255.964C440.713 255.951 440.914 256.773 440.659 257.76C440.312 259.276 440.536 259.344 441.851 258.176C444.019 256.153 447.439 252.588 450.634 248.954C452.118 247.178 454.113 245.914 455.241 245.955C456.899 245.906 456.817 246.134 455.132 247.088C453.986 247.649 453.128 248.654 453.26 249.252C453.393 249.85 454.772 249.056 456.397 247.577C459.187 244.934 459.187 244.934 456.478 244.864C454.825 244.763 454.007 244.411 454.473 243.945C455.016 243.402 455.039 242.649 454.6 242.21C454.234 241.844 453.778 242.009 453.531 242.694C453.107 244.287 451.124 242.615 447.87 238.119C447.509 237.603 446.747 237.927 446.195 238.771C445.254 240.004 444.505 239.876 442.751 238.121C441.142 236.513 440.169 236.316 439.238 237.247C436.599 239.886 435.226 243.014 436.25 244.038C437.346 245.134 435.863 246.91 431.886 248.986C429.744 250.104 429.593 250.109 430.766 248.643C432.09 247.173 432.017 247.1 429.652 248.15C428.2 248.871 426.925 248.683 426.573 247.865C426.157 246.673 424.705 247.394 420.304 251.064C417.213 253.716 413.894 256.45 412.894 257.158C411.967 257.938 410.023 260.029 408.539 261.805ZM439.253 239.28C439.472 239.499 439.527 240.175 439.281 240.86C439.112 241.467 438.578 241.709 438.212 241.344C437.774 240.905 437.796 240.152 438.184 239.763C438.65 239.298 439.106 239.134 439.253 239.28ZM434.051 249.599C434.489 250.038 434.618 250.787 434.526 251.317C434.358 251.924 433.755 251.942 433.17 251.357C432.585 250.773 432.384 249.95 432.772 249.562C433.082 249.252 433.685 249.234 434.051 249.599ZM430.729 257.454C431.771 257.874 431.301 258.491 429.068 260.138C427.379 261.243 423.827 264.21 421.115 266.776C416.235 271.363 416.235 271.363 422.005 264.716C428.943 256.754 429.098 256.599 430.729 257.454ZM438.983 248.323C439.202 248.542 439.257 249.218 439.011 249.903C438.842 250.511 438.308 250.752 437.942 250.387C437.504 249.948 437.526 249.195 437.914 248.807C438.38 248.341 438.836 248.177 438.983 248.323ZM437.299 251.761C437.285 252.213 436.66 252.985 435.898 253.309C435.057 253.71 435.071 253.258 435.925 252.405C436.705 251.478 437.39 251.231 437.299 251.761ZM440.268 253.178C440.255 253.631 439.629 254.402 438.867 254.726C438.027 255.128 438.04 254.675 438.894 253.822C439.674 252.895 440.359 252.649 440.268 253.178Z" fill="#AE6D63"/>
<path d="M322.309 350.813C323.072 350.489 323.697 349.718 323.71 349.266C323.802 348.736 323.117 348.982 322.336 349.909C321.482 350.763 321.469 351.215 322.309 350.813Z" fill="#AE6D63"/>
<path d="M345.591 327.531C346.203 327.212 347.134 326.28 347.532 325.591C347.778 324.906 347.244 325.148 346.157 326.234C345.071 327.321 344.829 327.855 345.591 327.531Z" fill="#AE6D63"/>
<path d="M349.458 324.103C350.207 324.231 349.18 325.843 346.852 328.171C343.981 331.042 343.187 332.421 343.676 333.687C344.728 336.291 345.568 335.889 351.914 330.128C357.639 324.988 357.716 324.91 355.081 324.914C353.345 325.041 352.532 324.538 352.929 323.849C353.326 323.159 352.81 322.798 351.38 322.765C348.891 322.915 347.663 323.705 349.458 324.103Z" fill="#AE6D63"/>
<path d="M432.886 240.675C435.389 240.073 439.269 236.192 438.319 235.242C437.88 234.803 436.113 235.985 434.328 237.77C431.845 240.254 431.521 241.016 432.886 240.675Z" fill="#AE6D63"/>
<path d="M386.272 288.897C385.935 290.112 386.62 289.865 388.405 288.08C389.724 286.761 390.742 285.451 390.596 285.305C389.938 284.647 386.619 287.381 386.272 288.897Z" fill="#AE6D63"/>
<path d="M424.571 254.4C425.183 254.08 426.114 253.149 426.511 252.46C426.758 251.775 426.224 252.016 425.137 253.103C424.05 254.19 423.809 254.724 424.571 254.4Z" fill="#AE6D63"/>
<path d="M389.558 292.338C390.635 291.553 392.032 290.156 392.662 289.233C393.141 288.316 392.219 288.945 390.585 290.726C388.877 292.433 388.403 293.2 389.558 292.338Z" fill="#AE6D63"/>
<path d="M255.087 428.563C255.763 428.618 255.892 429.367 255.645 430.052C255.162 431.12 255.381 431.34 256.81 431.372C258.391 431.401 258.555 430.944 257.714 428.861C257.151 427.522 257.174 426.769 257.612 427.207C258.202 427.642 258.951 427.77 259.416 427.304C259.805 426.916 259.448 426.249 258.63 425.897C257.735 425.623 256.37 425.965 255.516 426.818C254.74 427.594 254.489 428.43 255.087 428.563Z" fill="#AE6D63"/>
<path d="M396.498 286.86C397.109 286.541 398.041 285.609 398.438 284.92C398.684 284.235 398.15 284.477 397.063 285.563C395.977 286.65 395.735 287.184 396.498 286.86Z" fill="#AE6D63"/>
<path d="M346.939 337.881C350.715 334.982 353.587 334.596 351.022 337.307C349.314 339.015 349.31 339.165 351.141 338.358C353.05 337.473 353.041 337.774 351.809 341.199C351.07 343.254 349.637 345.857 348.628 346.866C346.378 349.116 347.616 350.51 350.237 348.474C351.314 347.689 352.524 347.502 352.959 348.092C353.242 348.685 354.302 348.503 355.078 347.727C355.931 346.873 357.228 346.308 357.827 346.44C358.425 346.573 358.48 347.249 357.859 347.87C357.161 348.568 356.91 349.404 357.275 349.77C358.153 350.647 364.107 347.909 364.527 346.466C364.695 345.859 366.165 344.535 367.773 343.659C369.458 342.705 370.932 341.231 371.187 340.244C371.525 339.029 371.15 338.965 369.909 340.207C368.9 341.216 367.831 341.7 367.466 341.334C367.027 340.895 365.342 341.849 363.644 343.255C361.713 344.894 363.21 342.666 367.19 337.954C371.326 333.087 373.138 330.398 371.992 330.959C370.54 331.68 370.019 331.47 370.274 330.484C370.944 328.205 369.46 327.496 367.675 329.281C366.821 330.135 365.99 330.235 365.857 329.637C365.651 328.965 364.816 329.216 363.884 330.147C362.953 331.079 362.113 331.48 362.204 330.95C362.144 330.425 361.254 330 360.121 330.109C358.993 330.067 357.568 329.884 356.901 329.527C356.083 329.175 353.622 330.905 349.746 334.635C346.491 337.744 345.245 339.136 346.939 337.881Z" fill="#AE6D63"/>
<path d="M391.706 296.038C393.249 294.787 395.345 292.692 396.363 291.382C397.38 290.071 396.07 291.089 393.509 293.65C390.948 296.211 390.163 297.289 391.706 296.038Z" fill="#AE6D63"/>
<path d="M420.666 274.243C417.69 278.096 416.033 280.63 416.883 279.927C417.736 279.074 418.417 278.978 418.476 279.503C418.349 281.239 422.053 280.752 424.071 278.734L426.089 276.716L425.551 279.593L424.936 282.548L427.977 281.554C429.954 280.892 433.196 278.236 436.999 274.433C440.185 271.1 441.596 269.251 440.285 270.269C438.824 271.291 436.463 272.19 434.956 272.235C432.243 272.316 432.17 272.243 434.284 269.545L436.475 266.769L433.84 269.257C430.129 272.53 429.826 270.054 433.401 266.334L436.199 263.389L431.976 266.15C428.674 268.282 427.916 268.455 428.642 266.852C430.645 262.802 426.308 266.846 420.666 274.243Z" fill="#AE6D63"/>
<path d="M401.002 299.902C401.847 299.349 402.933 298.263 403.33 297.573C403.577 296.888 402.887 297.285 401.568 298.605C400.326 299.847 400.007 300.458 401.002 299.902Z" fill="#AE6D63"/>
<path d="M401.278 303.282C400.32 305.117 399.813 306.939 400.106 307.232C400.91 308.036 407.589 301.211 409.273 297.773C410.231 295.937 409.382 296.64 406.191 300.123C403.849 302.904 402.534 304.072 403.401 302.766C405.209 300.228 405.682 296.976 404.121 298.83C403.573 299.524 402.232 301.597 401.278 303.282Z" fill="#AE6D63"/>
<path d="M455.91 251.281C456.276 251.647 454.934 253.72 452.839 255.815C450.666 257.988 449.091 260.294 449.292 261.116C449.494 261.938 449.644 261.934 449.895 261.098C450.146 260.262 451 259.408 451.831 259.308C454.187 258.56 457.25 254.328 458.431 250.076L459.448 246.282L457.352 248.377C456.11 249.619 455.472 250.842 455.91 251.281Z" fill="#AE6D63"/>
<path d="M411.209 298.468C411.972 298.144 412.597 297.372 412.611 296.92C412.702 296.39 412.017 296.637 411.236 297.563C410.383 298.417 410.369 298.869 411.209 298.468Z" fill="#AE6D63"/>
<path d="M373.137 338.003C373.899 337.679 374.525 336.907 374.538 336.455C374.629 335.925 373.944 336.171 373.164 337.098C372.31 337.952 372.296 338.404 373.137 338.003Z" fill="#AE6D63"/>
<path d="M459.268 252.31C458.78 253.529 457.821 255.365 457.265 256.36C455.188 260.338 457.74 258.078 460.049 253.868C461.4 251.494 461.979 249.745 461.372 249.913C460.765 250.082 459.829 251.164 459.268 252.31Z" fill="#AE6D63"/>
<path d="M377.748 334.853C378.36 334.534 379.291 333.603 379.688 332.913C379.935 332.228 379.4 332.47 378.314 333.556C377.227 334.643 376.986 335.177 377.748 334.853Z" fill="#AE6D63"/>
<path d="M437.864 278.247C436.216 280.48 439.238 277.604 444.68 271.87C449.971 266.14 454.335 261.191 454.421 260.812C454.453 259.757 441.159 273.782 437.864 278.247Z" fill="#AE6D63"/>
<path d="M241.04 287.015C240.845 274.612 240.6 264.017 240.307 255.228C240.112 246.341 239.917 238.87 239.721 232.815C239.526 226.761 239.282 221.976 238.989 218.46C238.794 214.847 238.647 211.966 238.55 209.817C238.452 207.669 238.354 206.155 238.257 205.276C238.159 204.3 238.11 203.372 238.11 202.493C238.11 200.833 238.598 199.808 239.575 199.417C240.552 198.929 241.772 198.685 243.237 198.685C244.897 198.685 246.167 199.026 247.046 199.71C248.022 200.296 248.511 201.907 248.511 204.544L251.294 283.353C251.391 283.353 251.88 283.255 252.759 283.06C253.637 282.864 254.663 282.571 255.835 282.181C257.007 281.79 258.227 281.399 259.497 281.009C260.766 280.521 261.792 280.081 262.573 279.69C263.745 279.202 265.503 278.421 267.846 277.347C270.19 276.273 272.827 275.052 275.757 273.685C278.686 272.317 281.762 270.901 284.985 269.437C288.305 267.874 291.43 266.458 294.36 265.189C297.387 263.821 300.024 262.601 302.27 261.526C304.614 260.355 306.372 259.524 307.544 259.036H309.302C309.887 259.036 310.473 259.085 311.059 259.183C311.645 259.28 312.134 259.524 312.524 259.915C312.915 260.306 313.159 260.892 313.257 261.673C313.257 262.649 313.061 263.48 312.671 264.163C312.378 264.847 311.938 265.628 311.352 266.507C305.591 267.581 299.927 269.534 294.36 272.366C288.891 275.198 283.423 278.128 277.954 281.155C272.583 284.183 267.114 286.868 261.548 289.212C256.079 291.556 250.464 292.728 244.702 292.728C242.261 292.728 241.04 290.823 241.04 287.015Z" fill="#F0F3FF"/>
<path d="M533.035 300.383C532.84 287.981 532.596 277.385 532.303 268.596C532.108 259.709 531.912 252.238 531.717 246.184C531.522 240.129 531.278 235.344 530.985 231.828C530.789 228.215 530.643 225.334 530.545 223.186C530.448 221.037 530.35 219.523 530.252 218.645C530.155 217.668 530.106 216.74 530.106 215.861C530.106 214.201 530.594 213.176 531.571 212.785C532.547 212.297 533.768 212.053 535.233 212.053C536.893 212.053 538.162 212.395 539.041 213.078C540.018 213.664 540.506 215.275 540.506 217.912L543.289 296.721C543.387 296.721 543.875 296.623 544.754 296.428C545.633 296.232 546.658 295.94 547.83 295.549C549.002 295.158 550.223 294.768 551.492 294.377C552.762 293.889 553.787 293.449 554.569 293.059C555.741 292.57 557.498 291.789 559.842 290.715C562.186 289.641 564.823 288.42 567.752 287.053C570.682 285.686 573.758 284.27 576.981 282.805C580.301 281.242 583.426 279.826 586.356 278.557C589.383 277.19 592.02 275.969 594.266 274.895C596.61 273.723 598.367 272.893 599.539 272.404H601.297C601.883 272.404 602.469 272.453 603.055 272.551C603.641 272.648 604.129 272.893 604.52 273.283C604.91 273.674 605.155 274.26 605.252 275.041C605.252 276.018 605.057 276.848 604.666 277.531C604.373 278.215 603.934 278.996 603.348 279.875C597.586 280.949 591.922 282.902 586.356 285.734C580.887 288.566 575.418 291.496 569.949 294.523C564.578 297.551 559.11 300.236 553.543 302.58C548.074 304.924 542.459 306.096 536.698 306.096C534.256 306.096 533.035 304.191 533.035 300.383ZM651.834 302.287C651.346 299.748 650.907 296.721 650.516 293.205C650.223 289.592 649.881 285.979 649.491 282.365C649.1 278.654 648.612 275.188 648.026 271.965C647.537 268.742 646.756 266.106 645.682 264.055C640.701 274.211 636.307 282.219 632.498 288.078C628.69 293.84 625.321 297.99 622.391 300.529C619.559 302.971 617.166 304.143 615.213 304.045C613.26 303.947 611.649 303.068 610.379 301.408C609.11 299.748 608.182 297.648 607.596 295.109C607.108 292.473 606.766 290.031 606.571 287.785C606.571 285.637 607.059 282.609 608.035 278.703C609.012 274.797 610.33 270.549 611.991 265.959C613.651 261.272 615.604 256.535 617.85 251.75C620.194 246.965 622.684 242.619 625.321 238.713C627.957 234.807 630.692 231.584 633.524 229.045C636.356 226.506 639.188 225.236 642.02 225.236C646.219 224.553 649.295 225.481 651.248 228.02C653.299 230.461 653.69 234.611 652.42 240.471C652.42 246.916 652.664 252.434 653.153 257.023C653.739 261.613 654.324 266.008 654.91 270.207C655.594 274.406 656.18 278.801 656.668 283.391C657.254 287.981 657.547 293.498 657.547 299.943C657.547 301.115 657.401 302.141 657.108 303.02C656.912 303.801 655.741 304.191 653.592 304.191C653.299 304.191 652.908 303.947 652.42 303.459C652.03 302.971 651.834 302.58 651.834 302.287ZM643.924 236.809C642.85 235.246 641.385 235.1 639.53 236.369C637.674 237.639 635.721 239.738 633.67 242.668C631.619 245.598 629.52 249.113 627.371 253.215C625.223 257.316 623.221 261.467 621.366 265.666C619.51 269.865 617.899 273.869 616.532 277.678C615.164 281.389 614.237 284.465 613.748 286.906C613.748 290.422 614.285 292.424 615.36 292.912C616.434 293.303 617.752 292.717 619.315 291.154C620.877 289.592 622.635 287.346 624.588 284.416C626.639 281.486 628.592 278.361 630.448 275.041C632.401 271.721 634.207 268.498 635.867 265.373C637.625 262.248 638.992 259.709 639.969 257.756C640.848 255.705 641.532 253.801 642.02 252.043C642.508 250.285 642.899 248.625 643.192 247.063C643.582 245.402 643.778 243.742 643.778 242.082C643.875 240.422 643.924 238.664 643.924 236.809Z" fill="#F0F3FF"/>
<path d="M705.448 214.25C702.323 214.25 699.149 214.543 695.926 215.129C692.801 215.715 689.676 216.398 686.551 217.18C683.426 217.863 680.301 218.498 677.176 219.084C674.051 219.67 670.877 219.963 667.655 219.963C666.678 219.963 665.653 219.865 664.578 219.67C663.602 219.377 663.114 218.498 663.114 217.033C663.114 216.057 663.504 215.08 664.285 214.104C665.164 213.029 666.092 212.443 667.069 212.346L706.326 206.633C706.424 206.242 706.571 205.656 706.766 204.875C706.961 203.996 707.205 203.166 707.498 202.385C707.889 201.506 708.377 200.773 708.963 200.188C709.549 199.504 710.233 199.162 711.014 199.162C712.186 199.162 713.114 199.455 713.797 200.041C714.481 200.627 715.067 201.311 715.555 202.092C716.043 202.775 716.483 203.41 716.873 203.996C717.264 204.582 717.752 204.875 718.338 204.875H719.51C720.487 204.777 722.049 204.631 724.198 204.436C726.346 204.143 728.787 203.85 731.522 203.557C734.354 203.264 737.332 202.971 740.457 202.678C743.582 202.287 746.561 201.994 749.393 201.799C752.225 201.506 754.715 201.262 756.864 201.066C759.012 200.773 760.574 200.529 761.551 200.334C761.844 200.334 762.528 200.334 763.602 200.334C764.774 200.236 765.604 200.188 766.092 200.188C766.092 202.043 765.067 203.606 763.016 204.875C761.063 206.047 758.524 207.072 755.399 207.951C752.371 208.732 748.953 209.367 745.145 209.856C741.434 210.246 737.772 210.588 734.158 210.881C730.643 211.174 727.371 211.418 724.344 211.613C721.414 211.809 719.168 212.053 717.606 212.346C717.215 219.279 717.362 226.506 718.045 234.025C718.826 241.545 719.754 249.113 720.828 256.731C722 264.348 723.074 271.916 724.051 279.436C725.028 286.955 725.516 294.133 725.516 300.969C725.907 302.336 726.053 303.41 725.955 304.191C725.955 304.973 725.711 305.51 725.223 305.803C724.735 306.096 724.002 306.242 723.026 306.242C722.049 306.242 720.877 306.193 719.51 306.096C718.533 302.58 717.655 298.479 716.873 293.791C716.19 289.006 715.555 283.928 714.969 278.557C714.383 273.088 713.797 267.473 713.211 261.711C712.723 255.949 712.235 250.236 711.746 244.572C711.258 238.908 710.721 233.488 710.135 228.313C709.549 223.137 708.866 218.449 708.084 214.25H705.448ZM754.373 286.027C753.69 281.535 753.348 277.19 753.348 272.99C753.348 268.693 753.592 264.348 754.08 259.953C754.666 255.559 755.448 251.018 756.424 246.33C757.498 241.545 758.719 236.418 760.086 230.949C760.086 229.875 760.379 228.898 760.965 228.02C761.551 227.043 762.332 226.262 763.309 225.676C764.285 224.992 765.311 224.455 766.385 224.065C767.459 223.674 768.485 223.479 769.461 223.479C771.61 223.479 773.563 224.162 775.321 225.529C777.078 226.897 778.641 228.557 780.008 230.51C781.473 232.463 782.694 234.563 783.67 236.809C784.744 238.957 785.623 240.813 786.307 242.375C787.088 245.793 787.625 249.699 787.918 254.094C788.309 258.391 788.358 262.785 788.065 267.277C787.772 271.77 787.088 276.213 786.014 280.607C784.94 284.904 783.426 288.859 781.473 292.473C779.52 296.086 776.981 299.113 773.856 301.555C770.828 303.996 767.215 305.51 763.016 306.096C760.77 306.096 759.061 305.363 757.889 303.898C756.717 302.336 755.838 300.481 755.252 298.332C754.764 296.086 754.471 293.84 754.373 291.594C754.373 289.348 754.373 287.492 754.373 286.027ZM761.844 285.588C761.844 286.565 761.844 287.492 761.844 288.371C761.942 289.25 762.039 290.129 762.137 291.008C762.332 291.789 762.528 292.668 762.723 293.645C763.016 294.523 763.358 295.549 763.748 296.721H764.627C766.971 296.721 768.973 295.94 770.633 294.377C772.293 292.815 773.709 290.813 774.881 288.371C776.053 285.832 777.03 283.049 777.811 280.022C778.592 276.897 779.178 273.869 779.569 270.94C780.057 267.912 780.35 265.129 780.448 262.59C780.643 259.953 780.741 257.854 780.741 256.291V253.361C780.741 252.092 780.692 250.676 780.594 249.113C780.496 247.453 780.301 245.793 780.008 244.133C779.813 242.375 779.471 240.813 778.983 239.445C778.494 237.981 777.86 236.809 777.078 235.93C776.297 235.051 775.272 234.611 774.002 234.611C771.854 233.928 769.998 234.074 768.436 235.051C766.971 236.027 765.75 237.688 764.774 240.031C763.895 242.277 763.211 245.061 762.723 248.381C762.235 251.701 761.942 255.363 761.844 259.367C761.746 263.371 761.698 267.619 761.698 272.111C761.795 276.604 761.844 281.096 761.844 285.588ZM794.949 344.621C796.024 334.367 796.61 324.602 796.707 315.324C796.903 306.145 796.854 297.063 796.561 288.078C796.366 279.094 796.024 270.012 795.535 260.832C795.047 251.652 794.754 241.936 794.657 231.682C794.949 230.315 795.291 229.289 795.682 228.606C796.17 227.824 797.391 227.629 799.344 228.02C801.395 228.508 802.616 229.68 803.006 231.535C803.397 233.293 803.494 235.295 803.299 237.541C803.104 239.787 802.811 242.033 802.42 244.279C802.03 246.525 802.03 248.332 802.42 249.699C805.545 247.453 808.866 245.109 812.381 242.668C815.897 240.227 819.559 238.078 823.367 236.223C827.176 234.27 831.131 232.854 835.233 231.975C839.334 230.998 843.436 230.949 847.537 231.828C852.616 233 856.131 234.758 858.084 237.102C860.135 239.348 860.916 241.984 860.428 245.012C860.037 247.941 858.67 251.213 856.326 254.826C853.983 258.342 851.102 261.906 847.684 265.52C844.266 269.133 840.457 272.697 836.258 276.213C832.059 279.729 827.957 283 823.953 286.027C819.949 288.957 816.19 291.545 812.674 293.791C809.256 296.037 806.522 297.697 804.471 298.772C804.373 299.943 804.227 301.799 804.032 304.338C803.934 306.779 803.787 309.563 803.592 312.688C803.494 315.813 803.348 319.084 803.153 322.502C803.055 325.92 802.908 329.191 802.713 332.316C802.616 335.441 802.469 338.225 802.274 340.666C802.176 343.107 802.127 344.914 802.127 346.086C801.932 346.184 801.59 346.281 801.102 346.379C800.614 346.477 800.028 346.525 799.344 346.525C798.66 346.623 798.026 346.672 797.44 346.672C796.854 346.77 796.463 346.77 796.268 346.672C795.975 346.672 795.682 346.379 795.389 345.793C795.096 345.305 794.949 344.914 794.949 344.621ZM803.153 264.348C802.86 265.715 802.762 267.424 802.86 269.475C803.055 271.428 803.25 273.527 803.446 275.773C803.739 277.922 804.032 280.022 804.324 282.072C804.617 284.123 804.813 285.881 804.91 287.346C808.621 284.514 812.918 281.633 817.801 278.703C822.782 275.773 827.567 272.6 832.157 269.182C836.844 265.764 840.994 261.955 844.608 257.756C848.221 253.557 850.614 248.82 851.785 243.547C852.176 241.496 851.981 240.129 851.199 239.445C850.516 238.664 849.295 238.127 847.537 237.834C843.826 237.053 839.578 237.346 834.793 238.713C830.008 239.982 825.369 241.887 820.877 244.426C816.483 246.965 812.625 249.992 809.305 253.508C805.985 257.023 803.934 260.637 803.153 264.348ZM869.217 303.166C869.217 296.818 869.071 290.129 868.778 283.098C868.582 276.066 868.338 268.986 868.045 261.857C867.85 254.631 867.801 247.551 867.899 240.617C867.996 233.684 868.436 227.19 869.217 221.135C869.412 221.037 869.852 220.988 870.535 220.988C871.317 220.891 871.854 220.842 872.147 220.842C873.514 220.842 874.588 221.086 875.369 221.574C876.248 221.965 876.688 222.893 876.688 224.357C876.688 230.119 876.639 236.418 876.541 243.254C876.541 249.992 876.492 256.877 876.395 263.908C876.395 270.842 876.395 277.727 876.395 284.563C876.395 291.398 876.492 297.6 876.688 303.166C876.785 304.826 876.444 305.9 875.662 306.389C874.979 306.975 874.1 307.268 873.026 307.268C871.854 307.268 870.877 306.975 870.096 306.389C869.315 305.9 869.022 304.826 869.217 303.166ZM865.994 198.283C865.994 197.111 866.385 196.33 867.166 195.94C867.948 195.549 868.826 195.354 869.803 195.354C871.756 195.354 872.977 195.988 873.465 197.258C873.953 198.527 874.198 199.992 874.198 201.652C873.612 202.727 872.879 203.508 872 203.996C871.121 204.387 870.194 204.484 869.217 204.289C868.338 203.996 867.557 203.361 866.873 202.385C866.287 201.408 865.994 200.041 865.994 198.283ZM928.397 302.287C927.908 299.748 927.469 296.721 927.078 293.205C926.785 289.592 926.444 285.979 926.053 282.365C925.662 278.654 925.174 275.188 924.588 271.965C924.1 268.742 923.319 266.106 922.244 264.055C917.264 274.211 912.869 282.219 909.061 288.078C905.252 293.84 901.883 297.99 898.953 300.529C896.121 302.971 893.729 304.143 891.776 304.045C889.823 303.947 888.211 303.068 886.942 301.408C885.672 299.748 884.744 297.648 884.158 295.109C883.67 292.473 883.328 290.031 883.133 287.785C883.133 285.637 883.621 282.609 884.598 278.703C885.574 274.797 886.893 270.549 888.553 265.959C890.213 261.272 892.166 256.535 894.412 251.75C896.756 246.965 899.246 242.619 901.883 238.713C904.52 234.807 907.254 231.584 910.086 229.045C912.918 226.506 915.75 225.236 918.582 225.236C922.782 224.553 925.858 225.481 927.811 228.02C929.862 230.461 930.252 234.611 928.983 240.471C928.983 246.916 929.227 252.434 929.715 257.023C930.301 261.613 930.887 266.008 931.473 270.207C932.157 274.406 932.742 278.801 933.231 283.391C933.817 287.981 934.11 293.498 934.11 299.943C934.11 301.115 933.963 302.141 933.67 303.02C933.475 303.801 932.303 304.191 930.155 304.191C929.862 304.191 929.471 303.947 928.983 303.459C928.592 302.971 928.397 302.58 928.397 302.287ZM920.487 236.809C919.412 235.246 917.948 235.1 916.092 236.369C914.237 237.639 912.283 239.738 910.233 242.668C908.182 245.598 906.082 249.113 903.934 253.215C901.785 257.316 899.783 261.467 897.928 265.666C896.073 269.865 894.461 273.869 893.094 277.678C891.727 281.389 890.799 284.465 890.311 286.906C890.311 290.422 890.848 292.424 891.922 292.912C892.996 293.303 894.315 292.717 895.877 291.154C897.44 289.592 899.198 287.346 901.151 284.416C903.201 281.486 905.155 278.361 907.01 275.041C908.963 271.721 910.77 268.498 912.43 265.373C914.188 262.248 915.555 259.709 916.532 257.756C917.41 255.705 918.094 253.801 918.582 252.043C919.071 250.285 919.461 248.625 919.754 247.063C920.145 245.402 920.34 243.742 920.34 242.082C920.438 240.422 920.487 238.664 920.487 236.809Z" fill="#5FB6AB"/>
</svg>
