<svg xmlns="http://www.w3.org/2000/svg" viewBox="0 0 500 500"><defs><style>.cls-1{fill:#202f3f;}.cls-2{fill:#ae6d63;}.cls-3{fill:#f0f3ff;}.cls-4{fill:#5fb6ab;}</style></defs><g id="Layer_2" data-name="Layer 2"><g id="Layer_1-2" data-name="Layer 1"><rect class="cls-1" width="500" height="500"/><path class="cls-2" d="M217.9,68c-.35,1.08-.27,2,.31,2.28s.67.67.29,1.06-.13.53.68.35c1.12-.3,1.17-.14.29.74-.6.6-.72,1-.35,1.07a28.15,28.15,0,0,0,4.64-3.7,25.31,25.31,0,0,1,5-4c.64-.23.65-.34.06-.48s-.4-.62,1.12-1.63,1.8-1.49,1.11-1.63-.67-.56-.18-1.06a1.71,1.71,0,0,0,.37-1.71c-.35-.68,0-1,1.43-1.43,2.09-.54,4.22-2.47,3.55-3.14-.26-.26.14-1.07.91-1.84,1.1-1.09,1.41-1.1,1.49,0,.11,1.75,2.1.89,3.56-1.49,1.29-2.12,2.27-1.35,1.09.76-.84,1.57-.84,1.57.67,1s1.45-.53.57.35a2.09,2.09,0,0,0-.53,1.88c.24.58-.59,1.93-2.18,3.42-1.32,1.32-2.38,2.89-2.29,3.42a7.11,7.11,0,0,1-.29,2.67c-.47,1.61-.47,1.61.56.68.83-.83,1.2-.68,2.06.74.66,1,6.33,7.21,12.68,14,9,9.53,13.07,13.4,18.64,17.55,7.76,5.89,11.84,8.32,12.61,7.55.33-.33,1.58.38,2.77,1.57,1.66,1.44,2,1.65,1.11.45-.67-.89-1-1.84-.69-2.11,1.16-1.16,7.66,3.92,11.4,8.76,1.84,2.5,1.94,2.82.57,2.22-3.68-1.59-4.49,4.18-.82,6.31.94.5,4.72,4,8.39,7.63,6.57,6.45,6.78,6.55,7.78,5.35.83-1,1.47-1.05,2.66-.08s1.94,1,2.66.24c1.31-1.31,2.62-.66,6.76,3.37l3.58,3.35-2.93-3.8a32.29,32.29,0,0,0-4.48-5,7.57,7.57,0,0,1-2.39-3.49c-.59-1.79-2.7-4.34-8.59-10.34l-7.85-8,6.07,5.3c10.22,8.9,9.6,8.39,8.54,6.45a11.94,11.94,0,0,0-3-3.32,7.78,7.78,0,0,1-2.46-3.22c-.38-1.48-.38-1.48.6-.61a12.72,12.72,0,0,0,3.14,2,56.88,56.88,0,0,1,6.61,4.86c3.12,2.57,4.32,3.33,3.93,2.28l-.6-1.48,1.15.93c1.61,1.28,13.88,12.79,17.86,16.77,3.32,3.2,3.37,3.25,1.84.74-.86-1.41-6.37-7.69-12.14-13.9s-10.31-11.41-9.94-11.47.39-.6,0-1-.55-1.11-.28-1.38,0-1.12-.69-1.79-1.07-1.72-.79-2.21.13-.75-.25-.37-1.22-.23-2.24-1.79c-.86-1.31-4.28-4.61-7.44-7.34s-8.56-7.68-11.92-11-6.27-5.72-6.34-5.35-1.66-1.23-3.46-3.46a123.8,123.8,0,0,0-11-11.38c-4.3-4-10.05-9.39-12.74-12.08a46,46,0,0,0-6.44-5.45c-.79-.35-3.2-1.56-5.3-2.67-4.66-2.47-6.26-2.31-3.68.27,1.45,1.45,2.08,1.64,2.42.89s1.14-.62,2.71.4c2.82,1.94,2.79,2.9-.15,1.39-1.73-1-1.94-1-1.17-.08,1.5,1.61-.59,3.91-2.48,2.79-.73-.4-1.37-.38-1.49,0-.29.91-.81.4-1.6-1.6a2.33,2.33,0,0,1,.17-2.25,1.58,1.58,0,0,0,0-1.91c-.4-.73-.83-.83-1-.24s-.61.61-1,.19a1.12,1.12,0,0,0-1.49-.17c-.43.44-1.48-.06-2.78-1.35s-1.79-2.34-1.35-2.78c1-1-.06-1.7-2.51-1.63-2.66.08-6.66,3.77-6,5.45.54,1.31-2.81,5-4.35,4.65-.53-.09-.63-.3-.15-.36A7.22,7.22,0,0,0,234.7,51c1-1.52-1.51.68-7.27,6.44C222.05,62.72,218.36,66.93,217.9,68Zm33.92-14.48c.41.73.65,1.42.54,1.53s-.68-.25-1.25-.82-.81-1.25-.54-1.52S251.42,52.8,251.82,53.53Zm-7.64,8c.57.57-.26,1.82-1.06,1.69-.42-.1-.46-.58,0-1S244.08,61.48,244.18,61.58Zm3.15,1.51a.85.85,0,0,1,.55,1.1c-.11.43-.6.5-1,.08C245.94,63.34,246.11,62.86,247.33,63.09Zm64.36,37.79c.35.68-.17.38-1.16-.6s-1.28-1.51-.65-1.21A7.24,7.24,0,0,1,311.69,100.88ZM306.34,116c1.21,2.2,1.21,2.2-.9-.24-2.83-3.27-3.23-4-1.61-2.93A9.63,9.63,0,0,1,306.34,116Zm6.23.08c.56.78-.07.37-1.36-.92s-1.7-1.92-1-1.41A12,12,0,0,1,312.57,116Zm-2.86,1.2c.41.42.35.9-.08,1a.87.87,0,0,1-1.11-.56C308.29,116.48,308.78,116.3,309.71,117.23Zm-3,6.91c.11.1-.07.69-.3,1.34s-.77.87-1,.61-.13-.9.3-1.34S306.63,124,306.73,124.14Zm28.13,3.2c.71.94,0,.48-1.36-.91s-2-2.18-1.23-1.67A14.68,14.68,0,0,1,334.86,127.34Z"/><path class="cls-2" d="M201.91,84.83c-.46,1-.54,2-.28,2.25s0,.8-.57,1.08-.87.77-.51,1.13c.88.88,3.21-2.38,5.11-7L207,78.77,204.85,81A16.63,16.63,0,0,0,201.91,84.83Z"/><path class="cls-2" d="M214.38,72.06A6.25,6.25,0,0,0,216,70.41c.18-.48-.31-.2-1.24.73S213.67,72.45,214.38,72.06Z"/><path class="cls-2" d="M169.72,118c-1.87,2.19-3.38,4.63-3.46,5.32,0,1,.18,1.17.73.62.38-.39.7-.29.85.19s-.91,1.83-2.17,3.1-2,1.65-1.52.89c1.34-2.17,1.12-3.49-.42-1.95-1,1-1.26,1-1,0,.18-.91-1.07.14-4.1,3.59-2.43,2.73-10,11.21-16.75,18.92-13.22,14.87-19.19,22.29-20.06,24.71a15.46,15.46,0,0,1-3.06,4.19l-2.58,2.58,4.14,4.24c2.32,2.33,7.43,7.77,11.35,12.12,4.53,5,7,7.25,6.62,6.3a20.08,20.08,0,0,0-3.47-4.79c-2.43-2.54-2.58-2.91-1-1.84,1.09.77,2.36,1.16,2.69.93s1.17.07,1.79.69,1.14.82,1.26.5a3.21,3.21,0,0,0-1.06-1.94c-.67-.67-1.18-1.61-1-2.1s-.7-1.79-1.83-2.93-1.8-2.23-1.53-2.51,2,1.12,3.85,3.08a26.85,26.85,0,0,0,5.08,4.54c1.58.8,1.53.75,0-.85a9.81,9.81,0,0,1-2.08-3.3,10.78,10.78,0,0,0-1.93-3.24c-2.47-2.91-1.34-3.31,1.5-.47,1.66,1.65,2.32,2.75,1.78,2.87-1.07.25.06,1.49,1.7,1.82,1,.18.81-.4-.36-2.23l-1.57-2.45,2.45,1.68a82.48,82.48,0,0,1,8.24,7.37c4,3.92,6.69,6,8.64,6.77a12.89,12.89,0,0,1,4.43,3.11c1.64,2.08,1.7,2.13-.2,1.45s-1.95-.64-.3,1c.88,1,1.93,1.48,2.2,1.21s1.33.22,2.21,1.1c1.29,1.3,1.33,1.67.38,1.48s.69,1.79,4.93,6c3.41,3.41,6.57,6.25,7,6.23,1.71-.05,7.9,4.61,6.56,5a3.24,3.24,0,0,1-2.31-1.11c-.78-.77-1.41-1.07-1.36-.7s.91,1.57,2,2.71c1.51,1.39,2,2.55,1.76,3.51-.41,1.34-.41,1.34.57.46.72-.71,1.4-.46,3.16,1.29,1.24,1.24,4.61,4.28,7.46,6.81s4.87,4.54,4.45,4.55-.82.72-.79,1.51c-.05,1.71,3.09,5.18,3.4,3.84.11-.43.49-.6.75-.34s.19.95-.25,1.39a1.24,1.24,0,0,0,0,1.7c.78.78.72.94-.39.71a8.6,8.6,0,0,1-3.08-2.09c-1.5-1.5-1.49-1.71-.28-1.27,1.42.54,1.47.49.34-.65-1-1.09-3.73-1.65-4.39-1-.33.33,9.55,8.24,12.32,9.91,2.51,1.52,2.51,1.52-.34-1-1.77-1.55-2.48-2.48-1.8-2.34s.81-.19-.07-1.17c-.67-.78.59,0,2.88,1.77,5.25,4.05,9.34,6.17,9.12,4.63-.19-.74,0-.75.69,0a60.85,60.85,0,0,0,7.22,6c3.49,2.61,6.29,5.08,6.28,5.51s-.79-.14-1.77-1.12c-1.35-1.35-1.72-1.39-1.54-.44.18,1.17.13,1.22-.54.55-.63-.51-.74-.29-.62,1s0,1.65-.57,1.08a1.18,1.18,0,0,0-1.65,0c-.65.66.27,1.8,5.86,7.17,3.62,3.51,6.71,6.94,6.86,7.52a12.32,12.32,0,0,0,2.44,3.76,38,38,0,0,1,2.67,3.22c1.06,1.83,4.91,3.15,8.59,2.88l4-.38,8.85-9.37c4.94-5.15,9.18-9.7,9.45-10,1.32-1.43,15.67-14.74,19.44-18.1,3.17-2.75,4.17-4.06,4.1-5.12s-.34-1.11-1.28-.18c-.6.6-1.36.95-1.61.69-.57-.57.23-2.4,2-4.32,1.21-1.32,1.05-1.36-.9,0s-2.12,1.4-.85-.08c2.42-2.63.61-2.68-2.77,0-2.72,2.1-3.15,2.22-2.31.76l1-1.74-1.48,1.38c-1,.93-1.95,1.12-2.84.67-1.1-.66-1.8-.27-4.11,2a14,14,0,0,0-3.34,4.89,4.91,4.91,0,0,1-2.39,3.32c-1.62,1-1.78,1-1.53-.43s.05-1.5-.71-1.15c-.54.22-.42-.21.35-1,1-1.15,1.05-1.37,0-1.12-.7.18-1.12.09-.85-.19s-.52-.41-1.8-.26l-2.3.22,1.54-1.64c1.38-1.37,1.33-1.53,0-1-1.08.46-1.34.41-.79-.24.39-.49-.3-.52-1.6,0l-2.37.92,1.87-2c1.37-1.38,1.55-1.86.7-1.83s-1.74,1-3.1,3.82-1.55,3.61-.52,3.1c.81-.29-.13,1-2.11,2.94-2.64,2.74-3.83,3.52-5,3.34s-1.58-.49-1.33-1.77c.19-1,0-1.28-.51-.84a5.5,5.5,0,0,1-3,.84c-1.87.11-2.79.72-5.11,3.34l-2.86,3.18-2.44-2.22c-1.4-1.18-3.58-3-5-4-2.29-1.74-2.55-1.79-4-.15-.82.93-1.28,1.9-1,2.27s-.17.27-1,0c-1.37-.49-1.38-.38-.08.91,2.94,3.16-.16,1.71-3.89-1.8a56,56,0,0,0-5.61-4.73c-1-.66-1.5-1.39-1.17-1.72s1.74.43,3.2,1.66l2.64,2.32-2.78-3c-1.55-1.66-2.78-3.32-2.77-3.75a2.4,2.4,0,0,0-.48-1.47,52.22,52.22,0,0,1-2.31-4.94c-1.69-4-4.89-7.2-6-6.05-.28.28-.8,0-1.16-.6-2.43-4.08-2.69-4.34-2.2-3s.34,1.32-1.57.84c-1.53-.43-2.06-.31-1.93.49s-.07.8-.85,0a1.39,1.39,0,0,0-1.91-.26c-.55.55-.31,1.34.78,2.43s1.23,1.56.49,1.58-3.87-2.55-7.29-5.64c-6.53-6-6.93-6.82-1-2.53,3.28,2.41,3.44,2.46,1.43.33-1.19-1.19-1.84-2.5-1.57-2.77s-.28-1.38-1.31-2.41-1.54-1.87-1.16-2-3.87-4.31-9.31-9.42-11-10.26-12.33-11.45c-1.45-1.34-2.5-1.84-2.94-1.4s-1.79-.37-4.64-3.11c-2.23-2.11-3.67-3.88-3.34-4s-.94-2.47-2.93-5.23-3.31-5.18-3-5.29.14-1-.52-2.06a5.38,5.38,0,0,1-.93-2.69c.06-.48-2.25-3.23-5.2-6.18s-5.26-5.7-5.14-6.13a13.55,13.55,0,0,1,2.61-3.32c1.43-1.64,2.1-2.73,1.57-2.82s.52-1.24,2.86-3.17c2.08-1.66,3.62-3.31,3.52-3.73-.28-1.16,2.15-4.32,7.54-10,2.64-2.74,4.19-4.7,3.43-4.25s-3.5,3-6,5.82c-4.46,5-4.68,5.09-7.23,4.95a4.61,4.61,0,0,0-4.42,1.94c-1.05,1.15-1.61,2.13-1.24,2.17s1-.4,1.47-1.05a4.07,4.07,0,0,1,2.07-1.45c.8-.18,0,1-2.34,3.26a59.28,59.28,0,0,0-5.34,6.07c-1.39,1.91-1.88,2.19-2,1.39A1.76,1.76,0,0,1,145,171a1.33,1.33,0,0,0,.54-2c-.61-1-.16-1.8,2.37-4.33,1.7-1.7,2.92-3.23,2.66-3.48s-2.45,1.83-5,4.51c-4.17,4.39-4.5,4.61-2.5,1.78,1.23-1.74,4.7-5.84,7.67-9.12a71.58,71.58,0,0,0,5.58-6.5,25.92,25.92,0,0,1,3.36-4c4.62-4.82,3.93-5.07-.89-.34-3.07,3-3.72,3.41-2.56,1.72.89-1.3,1.25-2.48.78-2.74s-.18-1.06.48-1.71c1-1.05,1.2-1,1,.07s.68.36,2.94-2c2.19-2.2,2.75-3.06,1.78-2.61l-1.51.69.84-1.36c.61-1.14.45-1.08-.75,0-.88.88-1.79,1.17-2,.75s-1.55.21-3.14,1.59a19.81,19.81,0,0,1-4.51,3.17l-1.89.85,1.54-1.54a11.4,11.4,0,0,0,2.06-3.3c.47-1.4.64-1.57,1-.73s.78.56,1.94-.91c3.82-5,16.26-18.42,17.55-19,.49-.29,1-.14,1.06.28s.74.19,1.4-.57.78-1.09.29-.92c-1.78.86-1.9-.47-.21-1.85a45.79,45.79,0,0,0,5.41-6.34c2.1-2.72,2.95-4.19,1.91-3.25s-2,1.44-2.05.91-.74-.29-1.34.31c-.88.88-1.36.84-1.66.1C178.64,108,176.46,110,169.72,118Zm1.47.7c.43.1.41.63-.14,1.18-.77.77-.72.92.19.74s1,0,.34,1a3.64,3.64,0,0,1-2,1.65c-1,.25-1,0-.14-.79s.83-1-.13-.79-1.07,0-.45-1C170.18,118.52,170.35,118.46,171.19,118.65Zm-12.3,16a1.64,1.64,0,0,1-1,1.1c-.59.28-.58,0,0-.64S159,134.3,158.89,134.67Zm4.39-4.39a1.64,1.64,0,0,1-1,1.1c-.59.28-.58,0,0-.64S163.35,129.91,163.28,130.28Zm-16.39,17.85a2,2,0,0,1-.47,1.5c-.39.39-.54.12-.36-.68C146.49,147.29,146.71,147.07,146.89,148.13Zm5-5.26a11.13,11.13,0,0,1-2.2,2.19c-.82.61-.48.07.73-1.14S152.17,142.22,151.84,142.87Zm3.4,1.76a6.25,6.25,0,0,1-1.64,1.65c-.71.39-.48,0,.4-.92S155.42,144.15,155.24,144.63Zm-2.51,3.85c.48.15.31.42-.28.71-1.35.62-1.88.42-1.11-.34A1.5,1.5,0,0,1,152.73,148.48Zm-4.46,8.71-3.59,4.1,5.15-4.73,5.09-4.79-4.25,5.08c-2.31,2.73-4.67,5.09-5.26,5.16-1,.14-1.4.36-2.55,1.52-.33.33-.59.28-.58-.15,0-1.11,5.27-7.23,7.61-8.95C151.2,153.43,150.69,154.35,148.27,157.19ZM122.6,184c.25.58-.07.59-.63,0s-.77-1-.4-.95A1.38,1.38,0,0,1,122.6,184Zm21.79-14.76c.26.26.19.85-.25,1.29a2.24,2.24,0,0,1-1.67.63c-.47-.14-.35-.68.25-1.28S144.08,168.92,144.39,169.23Zm12.47-7.29c.91-.19-.47,1.4-4.25,5.08-5.05,4.94-5.27,5-2.61,1.78C154.64,163.12,155.46,162.3,156.86,161.94Zm-22.14,31.64c1.09,1.09,1.34,1.67.59,1.69a2.74,2.74,0,0,1-1.87-1.44C132.33,191.74,132.81,191.67,134.72,193.58Zm41.14,20.28c.41.42.5.95.17,1.28s-1,.08-1.63-.54-.61-1.15-.18-1.27A1.8,1.8,0,0,1,175.86,213.86Zm5.22,8.85c.56.78-.07.37-1.36-.92s-1.7-1.92-1-1.41A11.69,11.69,0,0,1,181.08,222.71Zm9.48,5.09c1.08,1.3-.11.22-2.65-2.32s-3.46-3.57-2-2.33A46.36,46.36,0,0,1,190.56,227.8ZM209.19,253c.35.68-.17.38-1.16-.6s-1.28-1.51-.65-1.21A7.41,7.41,0,0,1,209.19,253Zm1.75-3.51c.43.09.57.46.3.74a.84.84,0,0,1-1.12.08c-.31-.31-.41-.62-.3-.73A1.25,1.25,0,0,1,210.94,249.5Zm29,35.34c.25.57-.07.58-.63,0s-.77-1-.4-.95A1.38,1.38,0,0,1,239.91,284.84Zm29-16.89c.43.09.35.89-.21,1.65-.89,1.31-.83,1.25.59,0,2.08-2,2.45-.29.37,1.8-2.25,2.25-3.81,2.77-4.9,1.69-.77-.78-.59-1.37,1.16-3.12C267.12,268.8,268.42,267.91,268.9,268Zm-.65,5.93c.53.09.24.79-.58,1.61s-1.53,1.11-1.62.58a2,2,0,0,1,2.2-2.19Zm17.37-11.17c-.92,2.16-2,3.2-2.2,2.19-.14-.47.47-1.5,1.35-2.27C286.08,261.31,286.19,261.31,285.62,262.71Z"/><path class="cls-2" d="M209.73,77.84c1.66-.42,0,3.57-2.11,4.8a3.43,3.43,0,0,0-1.73,2.66c0,1.49.11,1.54,1.41.86a5.42,5.42,0,0,0,1.93-2.34,11.6,11.6,0,0,1,2.45-3.59c1.1-1.1,1.72-2.23,1.46-2.49s.42-1.45,1.52-2.66l2-2-3.47,2C209.27,77.37,208.17,78.26,209.73,77.84Z"/><path class="cls-2" d="M227,69.82a11.17,11.17,0,0,0,2.2-2.2c.34-.65-.31-.2-1.47,1.06S226.14,70.43,227,69.82Z"/><path class="cls-2" d="M164.13,134.09a9.64,9.64,0,0,1-2.22,3.15c-2.69,2.69-1.61,2.23,2.26-.92,1.8-1.49,2.84-2.53,2.25-2.25-.76.35-.91.19-.73-.61.18-.59-.08-1-.51-.84A1.89,1.89,0,0,0,164.13,134.09Z"/><path class="cls-2" d="M206.22,91.89a14.41,14.41,0,0,0,3.57-3.57c1.06-1.68.63-1.45-2.22,1.4S204.49,93,206.22,91.89Z"/><path class="cls-2" d="M218.14,79.66a4.26,4.26,0,0,0,1.37-1.37c.18-.48-.2-.31-1,.46S217.6,79.89,218.14,79.66Z"/><path class="cls-2" d="M175,123.81a8.33,8.33,0,0,0,1.92-1.92c.34-.65-.2-.32-1.24.73S174.33,124.2,175,123.81Z"/><path class="cls-2" d="M178.87,120a6.15,6.15,0,0,0,1.65-1.65c.17-.48-.31-.2-1.25.73S178.17,120.36,178.87,120Z"/><path class="cls-2" d="M186.8,113.08a1.66,1.66,0,0,0,1-1.1c.06-.37-.42-.2-1,.46S186.2,113.36,186.8,113.08Z"/><path class="cls-2" d="M231.12,72.89a1.66,1.66,0,0,0,1-1.1c.07-.37-.42-.2-1,.46S230.53,73.17,231.12,72.89Z"/><path class="cls-2" d="M234.37,69.33c.46.47,2.37-.92,2.23-1.61-.09-.53-.68-.35-1.29.25S234.26,69.23,234.37,69.33Z"/><path class="cls-2" d="M166.85,139.23a14.43,14.43,0,0,0,2.47-2.47c.56-.77-.1-.32-1.47,1.05S166,139.84,166.85,139.23Z"/><path class="cls-2" d="M182.77,123.31a4.26,4.26,0,0,0,1.37-1.37c.17-.49-.21-.31-1,.45S182.23,123.54,182.77,123.31Z"/><path class="cls-2" d="M255.32,54.06c.52.52,2.34.25,2.41-.33-.05-.16-.68-.36-1.49-.28S255.06,53.81,255.32,54.06Z"/><path class="cls-2" d="M233.44,77.18c.31.31.14.8-.4,1-1,.51-2,2.93-1.2,2.86a16.79,16.79,0,0,0,2.86-3.18c1.33-1.74,1.83-2.66,1.18-2.11l-1.2,1,.63-1.56c.57-1.4.47-1.4-.85-.08C233.53,76,233.13,76.87,233.44,77.18Z"/><path class="cls-2" d="M181.41,132.93a1.63,1.63,0,0,0,1-1.09c.07-.37-.42-.2-1,.46S180.82,133.22,181.41,132.93Z"/><path class="cls-2" d="M147.91,167.48a4.4,4.4,0,0,0,1.37-1.38c.17-.48-.2-.31-1,.46S147.37,167.7,147.91,167.48Z"/><path class="cls-2" d="M157.64,158.77c.4,1.06.5,1,.59,0,0-.75-.23-1.33-.55-1.32S157.29,158.09,157.64,158.77Z"/><path class="cls-2" d="M168.21,147.17a1.65,1.65,0,0,0,1-1.09c.07-.38-.42-.2-1,.45S167.62,147.45,168.21,147.17Z"/><path class="cls-2" d="M240,75.55c-1.12,1.74-1.07,1.9.12,1.33a2.53,2.53,0,0,0,1.51-2.34c0-.85,0-1.43-.12-1.32S240.76,74.41,240,75.55Z"/><path class="cls-2" d="M159.67,156.74a6.27,6.27,0,0,0,1.65-1.64c.17-.49-.31-.21-1.25.73S159,157.14,159.67,156.74Z"/><path class="cls-2" d="M185.16,132.29a24.91,24.91,0,0,0,3.29-3.29c.72-.93-.2-.21-2,1.6S184.07,133.17,185.16,132.29Z"/><path class="cls-2" d="M231.8,85.64a1.65,1.65,0,0,0,1-1.09c.06-.37-.42-.2-1,.46S231.21,85.93,231.8,85.64Z"/><path class="cls-2" d="M169.12,152.47a1.66,1.66,0,0,0,1-1.1c.06-.37-.42-.2-1,.46S168.52,152.75,169.12,152.47Z"/><path class="cls-2" d="M144.93,210.26c1.6,1.6,2.07,1.75,1.68.8-.55-1.31-3.25-3.57-3.69-3.13A7.35,7.35,0,0,0,144.93,210.26Z"/><path class="cls-2" d="M151.2,217.53a6.48,6.48,0,0,1,2,2.76c.14.69.4.84.47.36s3.9,3,9.06,8.41c6.09,6.42,9,9,9.38,8.61s-.12-1.33-1-2.21-1.22-1.67-.69-1.79.5-.71,0-1.22c-3.08-3.53-4.43-4.77-5.18-4.64-.43.12-2.82-1.72-5.26-4.05s-5.54-5.21-7-6.55-2.76-2.1-3-1.83S150.16,216.71,151.2,217.53Z"/><path class="cls-2" d="M164.77,212.44c.83.83,1.25,1,.9.34a5.44,5.44,0,0,0-1.55-1.55C163.64,211.09,163.89,211.56,164.77,212.44Z"/><path class="cls-2" d="M171.25,206c.41.42,1,.56,1.32.23s0-.75-.55-1-1.22-.33-1.33-.22S170.83,205.55,171.25,206Z"/><path class="cls-2" d="M160,221.9c.73.72,1.1.87.9.34a3.62,3.62,0,0,0-1.29-1.29C159.09,220.81,159.24,221.17,160,221.9Z"/><path class="cls-2" d="M167.87,215.54c.83.83,1.25,1,.9.35a5.35,5.35,0,0,0-1.55-1.56C166.74,214.19,167,214.66,167.87,215.54Z"/><path class="cls-2" d="M179,213.18c2.9,2.79,5.6,5,6,5.1s-1.63-2.4-4.53-5.3-5.54-5.1-5.92-5S176.17,210.45,179,213.18Z"/><path class="cls-2" d="M172.71,226.42c-.08,1.12,1.79,2.66,2.39,2.05.33-.33,0-1.11-.74-1.84C173,225.29,172.75,225.24,172.71,226.42Z"/><path class="cls-2" d="M178.05,226.15c-.09,1.12,2.86,4,4.34,4.24.64.08,1-.09,1-.46C183,228.77,178,225.35,178.05,226.15Z"/><path class="cls-2" d="M187.3,221.14c.34,1.21,9.85,10.62,10.86,10.64a7.55,7.55,0,0,1,2.27.84c.67.46-1.86-2.08-5.69-5.69C188,220.58,186.86,219.82,187.3,221.14Z"/><path class="cls-2" d="M174.11,240.22a5,5,0,0,0,1.6,1.81c.73.41.64,0-.28-1.27C174,238.68,173.37,238.48,174.11,240.22Z"/><path class="cls-2" d="M183.25,237.39c1.39,1.39,2.07,1.85,1.35.92a14.06,14.06,0,0,0-2.58-2.59C181.29,235.21,181.8,235.94,183.25,237.39Z"/><path class="cls-2" d="M179.51,244.74c.73.72,1.1.87.9.35a3.73,3.73,0,0,0-1.29-1.3C178.64,243.65,178.79,244,179.51,244.74Z"/><path class="cls-2" d="M193.52,241.07c1.55,1.56,2.33,2.12,1.61,1.18a17,17,0,0,0-2.84-2.84C191.41,238.74,192,239.52,193.52,241.07Z"/><path class="cls-2" d="M186.68,249.16c2.71,1.83,3.19,1.77,1.23-.2-.88-.88-2-1.54-2.47-1.36S185.37,248.29,186.68,249.16Z"/><path class="cls-2" d="M186.23,251.46c1,1,1.51,1.29,1.16.61a6.92,6.92,0,0,0-1.81-1.81C185,250,185.25,250.48,186.23,251.46Z"/><path class="cls-2" d="M195.94,249c1.56,1.55,2.34,2.11,1.62,1.17a18.16,18.16,0,0,0-2.84-2.84C193.83,246.66,194.39,247.44,195.94,249Z"/><path class="cls-2" d="M328.69,116.24c.73.72,1.09.87.9.35a3.68,3.68,0,0,0-1.3-1.3C327.82,115.15,328,115.52,328.69,116.24Z"/><path class="cls-2" d="M197.4,253.74c1.55,1.55,2.33,2.11,1.62,1.17a17.81,17.81,0,0,0-2.85-2.84C195.29,251.4,195.85,252.19,197.4,253.74Z"/><path class="cls-2" d="M193.21,258.65a23.87,23.87,0,0,0,4.26,3.28,71.17,71.17,0,0,1,8.07,6.42c8.19,7.31,8.19,7.31,5.53,3.77a20.78,20.78,0,0,0-4.14-4.13c-1.78-1-2.9-2.58-1.88-2.88.53-.12-.81-1.46-7.54-7.76-1.56-1.44-2.14-1.69-2.54-.77-.34.65-.82.82-1.29.35a1.77,1.77,0,0,0-1.58-.48C191.57,256.57,192,257.46,193.21,258.65Zm5.9,1.85c.2.53-.17.38-.89-.35s-.87-1.09-.4-.94A3.62,3.62,0,0,1,199.11,260.5Z"/><path class="cls-2" d="M335.06,134.68c.73.73,1.09.88.9.35a3.57,3.57,0,0,0-1.3-1.29C334.19,133.59,334.34,134,335.06,134.68Z"/><path class="cls-2" d="M342.58,128.82a31,31,0,0,0,5.7,5.36l4.27,3.18L347,131.72a51.93,51.93,0,0,0-5.75-5.31A8.23,8.23,0,0,0,342.58,128.82Z"/><path class="cls-2" d="M207,266.23c.29.73.81,1.36,1.13,1.35,1,0,.62-1.25-.58-2S206.49,264.91,207,266.23Z"/><path class="cls-2" d="M209.82,264.07c.72.72,1.09.87.89.34a3.62,3.62,0,0,0-1.29-1.29C208.94,263,209.09,263.34,209.82,264.07Z"/><path class="cls-2" d="M212.79,271.43c.72.73,1.09.87.9.35a3.85,3.85,0,0,0-1.3-1.3C211.92,270.34,212.07,270.71,212.79,271.43Z"/><path class="cls-2" d="M340.17,150.88c.57.56.89.56.64,0a1.41,1.41,0,0,0-1-.93C339.4,149.89,339.55,150.36,340.17,150.88Z"/><path class="cls-2" d="M224.59,281.14c.46.47.13,1-.79,1.52-1.3.67-1.21,1,1.59,3.78,2.64,2.53,3,2.79,2.88,1.35-.13-.9.11-1.65.43-1.66,1,0-1-3.11-3-4.49C224.81,280.92,224.28,280.72,224.59,281.14Z"/><path class="cls-2" d="M229.06,281c1.29,1.29,1.92,1.7,1.36.92a11.69,11.69,0,0,0-2.33-2.33C227.36,279.09,227.77,279.72,229.06,281Z"/><path class="cls-2" d="M232.75,289.31c.57.57.89.56.64,0a1.38,1.38,0,0,0-1-.93C232,288.32,232.13,288.8,232.75,289.31Z"/><path class="cls-2" d="M262.67,262.81c-.52,1.24-.2,1.12,1.71-.37a26,26,0,0,0,4-4.22l1.67-2.29-2.56,1.84C264.4,260,263.58,260.86,262.67,262.81Z"/><path class="cls-2" d="M235.05,292.59c.73.73,1.09.88.9.35a3.57,3.57,0,0,0-1.3-1.29C234.18,291.5,234.33,291.87,235.05,292.59Z"/><path class="cls-2" d="M277.5,249.11a3.5,3.5,0,0,0,2.28-1.35c1.32-1.31,1.32-1.42-.08-.85C277.54,247.83,276.5,248.87,277.5,249.11Z"/><path class="cls-2" d="M303.73,226.71a1.65,1.65,0,0,0,1-1.09c.06-.38-.42-.2-1,.45S303.13,227,303.73,226.71Z"/><path class="cls-2" d="M281.12,252.73c1.68-1.06,1.46-.63-1.18,2.11s-2.87,3.28-1.35,2.6a6.57,6.57,0,0,0,2.51-2.1c.62-1.14.72-1,1.31.65.34,1.11.46,2.22.14,2.55s.09.43.79.24,2.88-1.94,4.8-4,2.86-3.18,2.05-2.57-1.51.69-1.61.27-1.1-.56-2.17-.31c-2,.38-2,.38-.22-1.54,1.15-1.26,1.32-1.64.51-1.13a3.73,3.73,0,0,1-2.52.55c-.69-.14-2,.54-3.14,1.8l-2,2.08Zm5.55,1.38a4.47,4.47,0,0,1-1.37,1.37c-.54.23-.37-.15.4-.92S286.85,253.62,286.67,254.11Z"/><path class="cls-2" d="M306.31,227.65a2.62,2.62,0,0,0,1.92-1.92c.3-1.24.08-1.13-1.51.47S305,228,306.31,227.65Z"/><path class="cls-2" d="M332.68,201.89a13.75,13.75,0,0,0,2.47-2.47c.56-.76-.09-.32-1.47,1.06S331.87,202.5,332.68,201.89Z"/><path class="cls-2" d="M350.79,183.89c-1.93,2.24-1.22,3.49.86,1.41.77-.77,1.25-.73,1.55,0s.88.66,2-.38c.88-.78,2.24-2,3.17-2.87,1.81-1.49,1.52-2.54-.33-1.43-.7.4-.09-.42,1.34-1.95,3.46-3.57,3.24-3.45,4.93-2.76,1.36.6,1.25.82-3.46,5.32-7.34,6.93-8.24,8.55-1.52,2.66,5.58-5,5.52-4.91-1.71,2.12-4.12,4-7,7-6.27,6.58,1.79-1.17,2.17.52.61,2.7-1.05,1.57-.68,1.4,2.1-.76,1.86-1.44,5.36-4.63,7.82-7s5.1-4.68,6-5,1.23-.31.9,0-.45,1-.14,1.28a.61.61,0,0,0,.9,0c.89-1.2,1.37-1.16,1.49.17.07,1.17.22,1.32,1,.55a1.12,1.12,0,0,0,.16-1.6c-.78-.77,0-3.14,1.05-3.22.32,0,.46.57.28,1.27-.24,1.07-.08,1.12.85.29,1.53-1.43,3.95-3.95,6.21-6.52,1-1.26,2.46-2.15,3.25-2.12,1.18,0,1.12.13-.07.8-.81.4-1.42,1.11-1.33,1.53s1.07-.14,2.22-1.18c2-1.87,2-1.87.06-1.92-1.17-.07-1.75-.32-1.42-.65a.87.87,0,0,0,.09-1.23c-.26-.26-.58-.14-.76.34-.3,1.13-1.7-.05-4-3.23-.25-.37-.79-.14-1.18.46-.67.87-1.2.78-2.44-.46s-1.82-1.28-2.48-.62c-1.87,1.87-2.84,4.08-2.12,4.8s-.27,2-3.08,3.5c-1.52.79-1.62.8-.79-.24s.88-1.09-.79-.35c-1,.51-1.93.38-2.18-.2-.29-.84-1.32-.33-4.43,2.26-2.19,1.88-4.53,3.81-5.24,4.31A33.23,33.23,0,0,0,350.79,183.89ZM372.51,168a1.29,1.29,0,0,1,0,1.12c-.12.43-.5.6-.76.34a.83.83,0,0,1,0-1.12C372.08,168,372.4,167.86,372.51,168Zm-3.68,7.3a1.48,1.48,0,0,1,.34,1.21c-.12.43-.55.44-1,0s-.56-1-.28-1.27A.65.65,0,0,1,368.83,175.26Zm-2.35,5.55c.74.3.41.73-1.17,1.9a53.38,53.38,0,0,0-5.63,4.69c-3.45,3.25-3.45,3.25.63-1.45C365.22,180.32,365.33,180.21,366.48,180.81Zm5.84-6.46a1.29,1.29,0,0,1,0,1.12c-.12.43-.5.6-.76.34a.82.82,0,0,1,0-1.11C371.89,174.37,372.21,174.25,372.32,174.35Zm-1.19,2.43a1.69,1.69,0,0,1-1,1.1c-.6.28-.59,0,0-.64S371.19,176.41,371.13,176.78Zm2.1,1a1.68,1.68,0,0,1-1,1.09c-.6.29-.59,0,0-.64S373.29,177.41,373.23,177.79Z"/><path class="cls-2" d="M289.82,246.83a1.66,1.66,0,0,0,1-1.1c.06-.37-.42-.2-1,.46S289.22,247.11,289.82,246.83Z"/><path class="cls-2" d="M306.28,230.36a4.26,4.26,0,0,0,1.37-1.37c.18-.48-.2-.31-1,.46S305.74,230.59,306.28,230.36Z"/><path class="cls-2" d="M309,227.94c.53.09-.19,1.23-1.84,2.87-2,2-2.59,3-2.24,3.9.74,1.85,1.33,1.56,5.82-2.51,4.05-3.64,4.1-3.69,2.24-3.69-1.23.09-1.8-.26-1.52-.75s-.09-.74-1.1-.77C308.61,227.1,307.74,227.66,309,227.94Z"/><path class="cls-2" d="M368,169c1.77-.43,4.51-3.17,3.84-3.85-.31-.31-1.56.53-2.82,1.79C367.27,168.65,367,169.19,368,169Z"/><path class="cls-2" d="M335.05,203c-.24.86.24.69,1.5-.57.94-.94,1.66-1.86,1.55-2C337.64,200,335.29,202,335.05,203Z"/><path class="cls-2" d="M362.13,178.65a4.37,4.37,0,0,0,1.37-1.37c.17-.49-.2-.31-1,.45S361.59,178.88,362.13,178.65Z"/><path class="cls-2" d="M337.37,205.48a11.1,11.1,0,0,0,2.19-2.2c.34-.65-.31-.2-1.47,1.06S336.55,206.09,337.37,205.48Z"/><path class="cls-2" d="M242.28,301.8c.48,0,.57.57.4,1.06-.34.75-.19.91.82.93s1.24-.3.64-1.78c-.4-.94-.38-1.48-.07-1.17a1,1,0,0,0,1.27.07c.28-.27,0-.74-.55-1a2.4,2.4,0,0,0-2.2.65C242,301.12,241.86,301.71,242.28,301.8Z"/><path class="cls-2" d="M342.28,201.6a4.26,4.26,0,0,0,1.37-1.37c.17-.48-.21-.31-1,.46S341.74,201.83,342.28,201.6Z"/><path class="cls-2" d="M307.23,237.68c2.67-2.05,4.7-2.32,2.89-.4-1.21,1.2-1.21,1.31.08.74s1.35-.41.48,2a13.5,13.5,0,0,1-2.25,4c-1.59,1.6-.72,2.58,1.13,1.14.77-.55,1.62-.69,1.93-.27s.95.29,1.5-.26a2.83,2.83,0,0,1,1.94-.91c.42.1.46.58,0,1s-.67,1.09-.41,1.35c.62.62,4.83-1.32,5.13-2.34a5.73,5.73,0,0,1,2.29-2,5.33,5.33,0,0,0,2.42-2.42c.24-.86,0-.9-.91,0-.71.71-1.46,1-1.72.79s-1.5.37-2.71,1.36c-1.36,1.16-.3-.42,2.51-3.75s4.21-5.34,3.4-4.94c-1,.51-1.4.36-1.22-.34.48-1.61-.57-2.11-1.84-.85-.6.6-1.19.67-1.28.25s-.74-.3-1.4.36-1.25.94-1.18.57-.68-.67-1.48-.59a6.25,6.25,0,0,1-2.27-.42c-.58-.25-2.32,1-5.06,3.62C306.92,237.58,306,238.57,307.23,237.68Z"/><path class="cls-2" d="M338.89,208.09a24.32,24.32,0,0,0,3.29-3.29c.72-.93-.21-.21-2,1.6S337.8,209,338.89,208.09Z"/><path class="cls-2" d="M359.37,192.68c-2.11,2.73-3.28,4.52-2.68,4s1.08-.67,1.13-.3c-.09,1.23,2.53.88,3.95-.54l1.43-1.43-.38,2-.44,2.08,2.16-.7c1.39-.47,3.69-2.34,6.37-5,2.26-2.36,3.25-3.67,2.33-2.95a8.25,8.25,0,0,1-3.77,1.39c-1.92.06-2,0-.48-1.9l1.55-2-1.86,1.76c-2.62,2.31-2.84.56-.31-2.07l2-2.08-3,2c-2.33,1.51-2.87,1.63-2.35.5C366.42,184.59,363.35,187.45,359.37,192.68Z"/><path class="cls-2" d="M345.46,210.83a6.3,6.3,0,0,0,1.65-1.65c.17-.49-.32-.2-1.25.73S344.76,211.22,345.46,210.83Z"/><path class="cls-2" d="M345.66,213.22c-.68,1.29-1,2.58-.83,2.79.57.57,5.29-4.26,6.48-6.69.68-1.3.08-.8-2.18,1.66-1.66,2-2.59,2.79-2,1.87,1.28-1.79,1.61-4.09.51-2.78A31.21,31.21,0,0,0,345.66,213.22Z"/><path class="cls-2" d="M384.29,176.45c.26.25-.69,1.72-2.18,3.2s-2.65,3.17-2.5,3.75.25.58.42,0a1.89,1.89,0,0,1,1.37-1.27c1.67-.53,3.83-3.52,4.67-6.53l.72-2.68-1.48,1.48C384.43,175.27,384,176.14,384.29,176.45Z"/><path class="cls-2" d="M352.68,209.81a1.65,1.65,0,0,0,1-1.09c.06-.38-.42-.2-1,.45S352.08,210.1,352.68,209.81Z"/><path class="cls-2" d="M325.76,237.77a1.66,1.66,0,0,0,1-1.1c.06-.37-.42-.2-1,.46S325.16,238.05,325.76,237.77Z"/><path class="cls-2" d="M386.66,177.17a27.4,27.4,0,0,1-1.42,2.87c-1.46,2.81.34,1.21,2-1.77,1-1.67,1.37-2.91.94-2.79A3.53,3.53,0,0,0,386.66,177.17Z"/><path class="cls-2" d="M329,235.54a4.37,4.37,0,0,0,1.37-1.37c.17-.49-.2-.32-1,.45S328.48,235.77,329,235.54Z"/><path class="cls-2" d="M371.53,195.51c-1.17,1.58,1-.45,4.82-4.51s6.82-7.55,6.88-7.82C383.26,182.44,373.86,192.36,371.53,195.51Z"/><path class="cls-3" d="M227.51,208.68q-.25-15.87-.63-27.12t-.5-19.13q-.24-7.76-.62-12.25c-.17-3.08-.29-5.54-.38-7.37s-.16-3.13-.25-3.88-.12-1.62-.12-2.37c0-1.42.42-2.3,1.25-2.63a6.88,6.88,0,0,1,3.12-.62,5.22,5.22,0,0,1,3.25.87c.84.5,1.25,1.88,1.25,4.13l2.38,67.25c.08,0,.5-.09,1.25-.25s1.62-.42,2.62-.75,2.05-.67,3.13-1,2-.8,2.62-1.13c1-.42,2.5-1.08,4.5-2l6.75-3.12q3.75-1.76,7.88-3.63t8-3.62q3.87-1.76,6.75-3.13t4.5-2.12h1.5a9.48,9.48,0,0,1,1.5.12,2.17,2.17,0,0,1,1.25.63,2.48,2.48,0,0,1,.62,1.5,4.13,4.13,0,0,1-.5,2.12,12.89,12.89,0,0,1-1.12,2,53.48,53.48,0,0,0-14.5,5q-7,3.63-14,7.5a136.31,136.31,0,0,1-14,6.88,36.18,36.18,0,0,1-14.38,3Q227.51,213.56,227.51,208.68Z"/><path class="cls-3" d="M122.73,412.12q-.18-11.91-.46-20.35c-.13-5.68-.25-10.47-.38-14.34s-.28-6.94-.47-9.19-.22-4.15-.28-5.53-.12-2.34-.19-2.91-.09-1.21-.09-1.78c0-1.06.31-1.72.94-2a5.22,5.22,0,0,1,2.34-.46,3.9,3.9,0,0,1,2.44.65c.62.38.94,1.41.94,3.1l1.78,50.43q.09,0,.93-.18c.57-.13,1.22-.32,2-.57s1.53-.5,2.35-.75,1.47-.59,2-.84c.75-.31,1.87-.81,3.37-1.5l5.06-2.34q2.82-1.32,5.91-2.72t6-2.72c1.94-.88,3.62-1.66,5.06-2.35s2.63-1.28,3.38-1.59h1.12a7.17,7.17,0,0,1,1.13.09,1.72,1.72,0,0,1,.93.47,1.87,1.87,0,0,1,.47,1.13,3.17,3.17,0,0,1-.37,1.59,9.29,9.29,0,0,1-.85,1.5,40.34,40.34,0,0,0-10.87,3.75q-5.25,2.72-10.5,5.63a104,104,0,0,1-10.5,5.15,27.1,27.1,0,0,1-10.78,2.25C123.52,415.77,122.73,414.55,122.73,412.12Zm76,1.22q-.48-2.44-.85-5.82c-.19-2.31-.4-4.62-.65-6.93s-.57-4.6-.94-6.66a16.07,16.07,0,0,0-1.5-5.06,151.8,151.8,0,0,1-8.44,15.37,39.72,39.72,0,0,1-6.47,8q-2.71,2.34-4.59,2.25a4,4,0,0,1-3.1-1.69,10.46,10.46,0,0,1-1.78-4c-.31-1.69-.53-3.25-.65-4.69a26.06,26.06,0,0,1,.93-5.81,83,83,0,0,1,2.54-8.15A98.34,98.34,0,0,1,177,381a69.5,69.5,0,0,1,4.78-8.34,32.83,32.83,0,0,1,5.25-6.19,8.22,8.22,0,0,1,5.43-2.44q4-.64,5.91,1.78c1.31,1.57,1.56,4.22.75,8a102.9,102.9,0,0,0,.47,10.6c.37,2.93.75,5.75,1.12,8.43s.82,5.5,1.13,8.44a86.38,86.38,0,0,1,.56,10.6,6.1,6.1,0,0,1-.28,2q-.18.75-2.25.75a1.26,1.26,0,0,1-.75-.46A1.41,1.41,0,0,1,198.77,413.34Zm-5.07-41.91c-.68-1-1.62-1.09-2.81-.28a15.66,15.66,0,0,0-3.75,4,60.74,60.74,0,0,0-4,6.75q-2.07,3.93-3.84,8t-3.1,7.69a41.41,41.41,0,0,0-1.78,5.9c0,2.25.34,3.53,1,3.85s1.53-.13,2.53-1.13a29.08,29.08,0,0,0,3.38-4.31q2-2.82,3.75-6c1.25-2.13,2.4-4.19,3.47-6.19s2-3.62,2.62-4.87a29.94,29.94,0,0,0,1.31-3.66c.32-1.13.57-2.19.75-3.19a13.84,13.84,0,0,0,.38-3.19C193.67,373.74,193.7,372.62,193.7,371.43Z"/><path class="cls-4" d="M233.08,357a34.61,34.61,0,0,0-6.1.56q-3,.57-6,1.32t-6,1.22a33.41,33.41,0,0,1-6.09.56,10.66,10.66,0,0,1-2-.19c-.62-.19-.94-.75-.94-1.69a3,3,0,0,1,.75-1.87,2.76,2.76,0,0,1,1.79-1.13l25.12-3.65c.06-.25.16-.63.28-1.13a12.3,12.3,0,0,1,.47-1.59,4.64,4.64,0,0,1,.94-1.41,1.66,1.66,0,0,1,1.31-.65,2.62,2.62,0,0,1,1.78.56,5.71,5.71,0,0,1,1.13,1.31c.31.44.59.84.84,1.22a1.11,1.11,0,0,0,.94.56h.75l3-.28c1.37-.19,2.94-.37,4.69-.56s3.71-.38,5.71-.56,3.91-.44,5.72-.57l4.78-.47c1.38-.18,2.38-.34,3-.46h1.32c.75-.07,1.28-.1,1.59-.1a3.52,3.52,0,0,1-2,3,20,20,0,0,1-4.87,2,53.44,53.44,0,0,1-6.57,1.22q-3.56.38-7,.66c-2.25.18-4.34.34-6.28.46a42.57,42.57,0,0,0-4.31.47,94.23,94.23,0,0,0,.28,13.88q.75,7.22,1.78,14.53T245,398.71a106.27,106.27,0,0,1,.94,13.78,5.35,5.35,0,0,1,.28,2.06,1.11,1.11,0,0,1-.47,1,2.85,2.85,0,0,1-1.4.28c-.63,0-1.38,0-2.25-.1a75.62,75.62,0,0,1-1.69-7.87c-.44-3.06-.84-6.31-1.22-9.75s-.75-7.1-1.12-10.78-.63-7.35-.94-11-.66-7.1-1-10.41-.81-6.31-1.31-9Zm31.31,45.94a55.23,55.23,0,0,1-.66-8.34,76.21,76.21,0,0,1,.47-8.35q.57-4.22,1.5-8.72t2.35-9.84a3.29,3.29,0,0,1,.56-1.88,4.31,4.31,0,0,1,1.5-1.5,8.62,8.62,0,0,1,2-1,5.74,5.74,0,0,1,2-.37,6,6,0,0,1,3.75,1.31,15,15,0,0,1,3,3.19,20,20,0,0,1,2.34,4c.69,1.37,1.25,2.56,1.69,3.56a48.72,48.72,0,0,1,1,7.5,53.88,53.88,0,0,1,.09,8.44,48.47,48.47,0,0,1-1.31,8.53,32.49,32.49,0,0,1-2.91,7.59,18.37,18.37,0,0,1-4.87,5.82,13.85,13.85,0,0,1-6.94,2.9,4,4,0,0,1-3.28-1.4A10.54,10.54,0,0,1,265,410.8a25.31,25.31,0,0,1-.56-4.31Zm4.78-.28v1.78c.06.56.13,1.12.19,1.69s.25,1.06.37,1.68l.66,2H271a5.43,5.43,0,0,0,3.85-1.5,12.88,12.88,0,0,0,2.72-3.84,31.88,31.88,0,0,0,1.87-5.34,52.67,52.67,0,0,0,1.13-5.82,44.37,44.37,0,0,0,.56-5.34c.12-1.69.19-3,.19-4V382c0-.81,0-1.72-.1-2.72a28.68,28.68,0,0,0-.37-3.18,13.58,13.58,0,0,0-.66-3,6.31,6.31,0,0,0-1.22-2.25,2.48,2.48,0,0,0-2-.85,4.14,4.14,0,0,0-3.56.28,6.84,6.84,0,0,0-2.34,3.19,24.71,24.71,0,0,0-1.32,5.35,58.11,58.11,0,0,0-.56,7q-.09,3.84-.09,8.15C269.14,396.9,269.17,399.77,269.17,402.65Zm21.19,37.78q1-9.84,1.12-18.75t-.09-17.44q-.18-8.62-.66-17.44t-.56-18.65a7.2,7.2,0,0,1,.66-2c.31-.5,1.09-.63,2.34-.38a2.86,2.86,0,0,1,2.35,2.25,12.6,12.6,0,0,1,.18,3.85c-.12,1.44-.31,2.87-.56,4.31a8,8,0,0,0,0,3.47q3-2.16,6.38-4.5a53.44,53.44,0,0,1,7-4.13,30.47,30.47,0,0,1,7.59-2.71,17.62,17.62,0,0,1,7.88-.1q4.88,1.13,6.75,3.38a5.79,5.79,0,0,1,1.5,5.06,15.76,15.76,0,0,1-2.63,6.28,51.7,51.7,0,0,1-5.53,6.84,86.66,86.66,0,0,1-7.31,6.85q-4,3.38-7.88,6.28t-7.22,5q-3.27,2.16-5.25,3.19c-.06.75-.15,1.93-.28,3.56S296,418,295.89,420s-.16,4.1-.28,6.28-.16,4.28-.28,6.28-.16,3.79-.28,5.35-.1,2.72-.1,3.47a2.88,2.88,0,0,1-.65.18,5.33,5.33,0,0,1-1.13.1,9,9,0,0,1-1.22.09,1.5,1.5,0,0,1-.75,0c-.18,0-.37-.19-.56-.56A1.55,1.55,0,0,1,290.36,440.43Zm5.25-51.38a13.1,13.1,0,0,0-.19,3.29c.13,1.25.25,2.59.38,4s.37,2.72.56,4,.31,2.44.37,3.37a92.76,92.76,0,0,1,8.25-5.53,100.15,100.15,0,0,0,9.19-6.09,47.26,47.26,0,0,0,8-7.31,20.64,20.64,0,0,0,4.59-9.1c.25-1.31.13-2.19-.37-2.62a3.87,3.87,0,0,0-2.34-1,16.93,16.93,0,0,0-8.16.56A37.94,37.94,0,0,0,307,376.3a32.49,32.49,0,0,0-7.4,5.82A14.57,14.57,0,0,0,295.61,389.05Zm42.28,24.85q0-6.09-.28-12.85t-.47-13.59c-.12-4.62-.16-9.16-.09-13.59a109.06,109.06,0,0,1,.84-12.47,2.36,2.36,0,0,1,.84-.1,10.44,10.44,0,0,1,1-.09,3.9,3.9,0,0,1,2.06.47c.56.25.84.84.84,1.78q0,5.54-.09,12.09t-.1,13.22V402q0,6.57.19,11.91c.06,1.06-.15,1.75-.65,2.06a2.48,2.48,0,0,1-1.69.56,3,3,0,0,1-1.88-.56C338,415.65,337.77,415,337.89,413.9Zm-2.06-67.13a1.51,1.51,0,0,1,.75-1.5,3.72,3.72,0,0,1,1.69-.37c1.25,0,2,.4,2.34,1.22a7.84,7.84,0,0,1,.47,2.81,3.67,3.67,0,0,1-1.41,1.5,2.92,2.92,0,0,1-1.78.19,3.11,3.11,0,0,1-1.5-1.22A5.19,5.19,0,0,1,335.83,346.77Zm39.94,66.57q-.48-2.44-.85-5.82c-.19-2.31-.4-4.62-.65-6.93s-.57-4.6-.94-6.66a16.07,16.07,0,0,0-1.5-5.06,151.8,151.8,0,0,1-8.44,15.37,39.72,39.72,0,0,1-6.47,8q-2.71,2.34-4.59,2.25a4,4,0,0,1-3.1-1.69,10.46,10.46,0,0,1-1.78-4c-.31-1.69-.53-3.25-.65-4.69a26.06,26.06,0,0,1,.93-5.81,83,83,0,0,1,2.54-8.15A98.34,98.34,0,0,1,354,381a69.5,69.5,0,0,1,4.78-8.34,32.83,32.83,0,0,1,5.25-6.19,8.22,8.22,0,0,1,5.43-2.44q4-.64,5.91,1.78c1.31,1.57,1.56,4.22.75,8a102.9,102.9,0,0,0,.47,10.6c.37,2.93.75,5.75,1.12,8.43s.82,5.5,1.13,8.44a86.38,86.38,0,0,1,.56,10.6,6.1,6.1,0,0,1-.28,2q-.18.75-2.25.75a1.26,1.26,0,0,1-.75-.46A1.41,1.41,0,0,1,375.77,413.34Zm-5.07-41.91c-.68-1-1.62-1.09-2.81-.28a15.66,15.66,0,0,0-3.75,4,60.74,60.74,0,0,0-4,6.75q-2.07,3.93-3.84,8t-3.1,7.69a41.41,41.41,0,0,0-1.78,5.9c0,2.25.34,3.53,1,3.85s1.53-.13,2.53-1.13a29.08,29.08,0,0,0,3.38-4.31q2-2.82,3.75-6c1.25-2.13,2.4-4.19,3.47-6.19s2-3.62,2.62-4.87a29.94,29.94,0,0,0,1.31-3.66c.32-1.13.57-2.19.75-3.19a13.84,13.84,0,0,0,.38-3.19C370.67,373.74,370.7,372.62,370.7,371.43Z"/></g></g></svg>