<svg width="501" height="501" viewBox="0 0 501 501" fill="none" xmlns="http://www.w3.org/2000/svg">
<rect x="0.593445" y="0.637772" width="500" height="500" fill="#202F3F"/>
<path d="M218.497 68.6494C218.145 69.7247 218.223 70.6806 218.801 70.9296C219.328 71.1268 219.473 71.6016 219.089 71.9858C218.65 72.4248 218.967 72.5218 219.771 72.3381C220.898 72.0383 220.946 72.1965 220.068 73.0746C219.465 73.6782 219.345 74.1077 219.717 74.1498C220.091 74.0854 222.164 72.4264 224.353 70.4444C226.545 68.3559 228.779 66.6389 229.37 66.4615C230.015 66.2293 230.019 66.1227 229.437 65.9803C228.749 65.8411 229.03 65.3536 230.551 64.3499C232.02 63.2945 232.352 62.8587 231.664 62.7195C231.083 62.5772 230.989 62.154 231.483 61.6602C231.922 61.2211 232.051 60.4719 231.853 59.9454C231.501 59.2638 231.83 58.9346 233.28 58.5186C235.373 57.977 237.507 56.05 236.834 55.3779C236.576 55.1195 236.973 54.309 237.741 53.5407C238.839 52.4432 239.158 52.4337 239.233 53.4962C239.341 55.2499 241.336 54.3918 242.791 52.0058C244.079 49.891 245.068 50.6601 243.887 52.7717C243.041 54.3409 243.041 54.3409 244.549 53.7635C245.95 53.1892 246.002 53.241 245.124 54.119C244.627 54.7194 244.388 55.5784 244.589 55.9983C244.838 56.5765 243.999 57.9325 242.411 59.4174C241.093 60.7344 240.035 62.31 240.126 62.8397C240.216 63.3693 240.126 64.5965 239.833 65.5103C239.359 67.1217 239.359 67.1217 240.398 66.1856C241.222 65.3624 241.59 65.5112 242.453 66.9229C243.115 67.9146 248.786 74.1341 255.132 80.919C264.111 90.447 268.201 94.3178 273.774 98.4639C281.531 104.355 285.611 106.789 286.379 106.02C286.709 105.691 287.965 106.399 289.154 107.588C290.815 109.029 291.128 109.233 290.259 108.034C289.593 107.149 289.302 106.199 289.577 105.925C290.729 104.772 297.232 109.849 300.974 114.689C302.816 117.189 302.913 117.506 301.547 116.908C297.868 115.314 297.057 121.088 300.72 123.214C301.663 123.719 305.446 127.173 309.117 130.843C315.686 137.302 315.895 137.402 316.89 136.201C317.719 135.165 318.359 135.146 319.554 136.122C320.646 136.994 321.495 137.075 322.209 136.362C323.526 135.045 324.837 135.698 328.976 139.727L332.55 143.081L329.628 139.282C328.042 137.146 326.032 134.917 325.147 134.251C324.258 133.692 323.189 132.074 322.749 130.756C322.163 128.963 320.057 126.417 314.166 120.417L306.312 112.453L312.382 117.755C322.605 126.661 321.981 126.147 320.921 124.209C320.417 123.265 319.131 121.76 317.932 120.891C316.789 119.966 315.661 118.509 315.473 117.663C315.091 116.184 315.091 116.184 316.077 117.06C316.645 117.628 318.002 118.546 319.21 119.096C320.363 119.7 323.332 121.901 325.827 123.956C328.944 126.525 330.146 127.287 329.752 126.234L329.157 124.761L330.3 125.686C331.912 126.969 344.187 138.475 348.167 142.455C351.479 145.657 351.531 145.709 350.008 143.199C349.146 141.787 343.636 135.51 337.859 129.293C331.975 123.08 327.552 117.888 327.926 117.824C328.356 117.705 328.317 117.227 327.903 116.813C327.438 116.348 327.35 115.712 327.625 115.437C327.954 115.108 327.605 114.32 326.933 113.648C326.261 112.976 325.866 111.923 326.147 111.435C326.376 110.896 326.276 110.686 325.892 111.07C325.401 111.457 324.674 110.84 323.656 109.273C322.79 107.968 319.375 104.663 316.209 101.936C313.042 99.2085 307.653 94.2584 304.293 90.8982C300.878 87.5928 298.022 85.1758 297.958 85.5504C297.893 85.925 296.291 84.3224 294.494 82.0867C292.7 79.7445 287.741 74.6751 283.44 70.704C279.14 66.733 273.392 61.3144 270.704 58.6262C267.961 55.9929 265.053 53.5242 264.265 53.175C263.477 52.8259 261.064 51.6202 258.967 50.5115C254.303 48.042 252.701 48.1963 255.286 50.7811C256.733 52.2286 257.366 52.4226 257.708 51.6671C258.05 50.9115 258.845 51.0475 260.412 52.0655C263.229 54.0045 263.2 54.9637 260.264 53.4542C258.536 52.4942 258.322 52.5006 259.095 53.3826C260.591 54.9883 258.499 57.2868 256.616 56.1718C255.882 55.7677 255.243 55.7868 255.124 56.2163C254.83 57.1301 254.313 56.6132 253.521 54.6137C253.227 53.7707 253.255 52.8115 253.695 52.3725C254.079 51.9884 254.104 51.1358 253.645 50.4574C253.241 49.7241 252.818 49.6302 252.641 50.2211C252.518 50.7572 252.037 50.8248 251.623 50.4112C251.158 49.946 250.467 49.9133 250.138 50.2426C249.699 50.6816 248.649 50.1806 247.357 48.8882C246.064 47.5958 245.563 46.5459 246.002 46.1069C246.99 45.1191 245.946 44.4049 243.495 44.4781C240.831 44.5576 236.834 48.2439 237.53 49.9268C238.076 51.2415 234.719 54.9087 233.185 54.5818C232.655 54.4911 232.555 54.2812 233.036 54.2136C233.465 54.0943 234.511 52.945 235.296 51.6439C236.299 50.1232 233.784 52.3279 228.022 58.0899C222.648 63.3613 218.955 67.5709 218.497 68.6494ZM252.416 54.1675C252.82 54.9008 253.066 55.5856 252.956 55.6953C252.847 55.8051 252.272 55.4496 251.703 54.8809C251.134 54.3123 250.889 53.6275 251.163 53.3531C251.437 53.0787 252.012 53.4342 252.416 54.1675ZM244.776 62.2217C245.344 62.7904 244.509 64.0398 243.714 63.9038C243.291 63.81 243.252 63.332 243.691 62.893C244.185 62.3991 244.672 62.1183 244.776 62.2217ZM247.925 63.7249C248.348 63.8187 248.601 64.2904 248.478 64.8264C248.359 65.2559 247.878 65.3235 247.464 64.9099C246.533 63.9794 246.708 63.495 247.925 63.7249ZM312.281 101.521C312.634 102.202 312.11 101.898 311.128 100.916C310.146 99.9338 309.842 99.4105 310.472 99.7111C311.099 100.118 311.926 100.945 312.281 101.521ZM306.934 116.587C308.146 118.787 308.146 118.787 306.036 116.348C303.205 113.078 302.801 112.345 304.42 113.415C305.15 113.925 306.332 115.327 306.934 116.587ZM313.16 116.667C313.723 117.449 313.096 117.042 311.803 115.75C310.511 114.457 310.104 113.83 310.834 114.341C311.616 114.903 312.65 115.937 313.16 116.667ZM310.303 117.871C310.716 118.284 310.649 118.765 310.219 118.885C309.683 119.007 309.211 118.755 309.118 118.332C308.888 117.114 309.372 116.94 310.303 117.871ZM307.328 124.774C307.432 124.877 307.254 125.468 307.022 126.114C306.738 126.708 306.251 126.989 305.992 126.731C305.682 126.42 305.859 125.829 306.298 125.39C306.737 124.951 307.225 124.671 307.328 124.774ZM335.449 127.981C336.167 128.918 335.488 128.459 334.092 127.063C332.645 125.616 332.134 124.886 332.864 125.396C333.646 125.958 334.784 127.096 335.449 127.981Z" fill="#AE6D63"/>
<path d="M202.502 85.4712C202.047 86.443 201.964 87.4571 202.222 87.7156C202.532 88.0257 202.252 88.5133 201.658 88.7972C201.012 89.0294 200.783 89.5686 201.145 89.9305C202.023 90.8094 204.357 87.5454 206.251 82.9635L207.634 79.4084L205.439 81.6035C204.232 82.8108 202.902 84.5542 202.502 85.4712Z" fill="#AE6D63"/>
<path d="M214.969 72.6944C215.566 72.3039 216.334 71.5356 216.615 71.0481C216.789 70.5637 216.302 70.8445 215.369 71.7774C214.491 72.6554 214.265 73.0881 214.969 72.6944Z" fill="#AE6D63"/>
<path d="M170.316 118.588C168.44 120.774 166.93 123.215 166.856 123.909C166.879 124.92 167.034 125.075 167.583 124.526C167.967 124.142 168.284 124.239 168.429 124.714C168.523 125.137 167.523 126.551 166.26 127.813C164.947 129.024 164.294 129.469 164.743 128.71C166.085 126.541 165.859 125.216 164.322 126.753C163.28 127.796 163.066 127.802 163.311 126.73C163.498 125.819 162.242 126.868 159.211 130.313C156.787 133.047 149.241 141.524 142.462 149.233C129.241 164.109 123.269 171.528 122.399 173.95C122.16 174.808 120.775 176.607 119.345 178.14L116.766 180.719L120.899 184.962C123.225 187.288 128.333 192.725 132.25 197.081C136.786 202.056 139.274 204.325 138.876 203.378C138.582 202.535 137.05 200.345 135.399 198.584C132.973 196.048 132.824 195.679 134.442 196.749C135.537 197.515 136.804 197.903 137.13 197.68C137.511 197.403 138.299 197.752 138.919 198.372C139.485 199.048 140.066 199.19 140.182 198.867C140.247 198.492 139.794 197.601 139.122 196.929C138.45 196.257 137.946 195.314 138.12 194.829C138.239 194.4 137.428 193.04 136.291 191.902C135.205 190.817 134.494 189.667 134.768 189.392C135.043 189.118 136.758 190.504 138.616 192.472C140.471 194.546 142.755 196.501 143.698 197.005C145.271 197.81 145.22 197.758 143.724 196.153C142.848 195.167 141.827 193.707 141.639 192.861C141.397 192.069 140.589 190.603 139.713 189.617C137.244 186.71 138.374 186.303 141.218 189.147C142.872 190.801 143.531 191.899 142.995 192.022C141.923 192.267 143.057 193.511 144.698 193.834C145.651 194.019 145.508 193.437 144.338 191.609L142.761 189.154L145.213 190.837C146.57 191.755 150.305 195.051 153.458 198.205C157.494 202.13 160.146 204.234 162.094 204.974C163.567 205.569 165.602 206.946 166.526 208.09C168.168 210.17 168.22 210.222 166.324 209.533C164.373 208.899 164.373 208.899 166.027 210.554C166.903 211.539 167.952 212.04 168.227 211.766C168.556 211.436 169.551 211.992 170.43 212.871C171.722 214.164 171.764 214.535 170.812 214.351C169.911 214.218 171.504 216.14 175.743 220.379C179.155 223.791 182.318 226.625 182.744 226.612C184.449 226.561 190.645 231.221 189.302 231.634C188.766 231.756 187.716 231.255 186.993 230.531C186.217 229.756 185.587 229.455 185.629 229.827C185.565 230.201 186.541 231.397 187.678 232.534C189.181 233.927 189.678 235.083 189.437 236.049C189.024 237.392 189.024 237.392 190.008 236.511C190.722 235.797 191.407 236.043 193.164 237.801C194.405 239.041 197.775 242.082 200.628 244.606C203.535 247.074 205.497 249.145 205.07 249.158C204.644 249.171 204.25 249.875 204.28 250.672C204.229 252.377 207.373 255.851 207.679 254.51C207.798 254.081 208.176 253.91 208.435 254.168C208.745 254.479 208.619 255.121 208.18 255.56C207.741 255.999 207.77 256.797 208.236 257.262C209.011 258.038 208.953 258.199 207.842 257.966C207.154 257.827 205.746 256.857 204.763 255.875C203.264 254.376 203.271 254.163 204.482 254.606C205.903 255.149 205.958 255.094 204.821 253.957C203.842 252.868 201.09 252.311 200.431 252.97C200.102 253.299 209.981 261.203 212.753 262.877C215.263 264.4 215.263 264.4 212.41 261.876C210.646 260.331 209.929 259.395 210.617 259.534C211.411 259.67 211.421 259.35 210.545 258.365C209.876 257.586 211.13 258.4 213.42 260.142C218.677 264.191 222.766 266.305 222.546 264.768C222.355 264.028 222.568 264.022 223.237 264.8C223.696 265.479 226.917 268.151 230.458 270.814C233.947 273.425 236.748 275.897 236.735 276.323C236.726 276.643 235.941 276.187 234.959 275.205C233.615 273.861 233.243 273.819 233.428 274.771C233.606 275.937 233.551 275.992 232.879 275.32C232.255 274.806 232.142 275.023 232.263 276.35C232.379 277.784 232.266 278 231.698 277.432C231.233 276.967 230.487 276.989 230.048 277.428C229.389 278.086 230.313 279.23 235.903 284.6C239.525 288.112 242.617 291.534 242.759 292.115C242.847 292.751 243.968 294.422 245.202 295.875C246.492 297.274 247.619 298.731 247.875 299.096C248.938 300.928 252.785 302.251 256.467 301.981L260.471 301.595L269.322 292.227C274.267 287.075 278.503 282.53 278.777 282.256C280.097 280.832 294.443 267.52 298.217 264.16C301.387 261.403 302.384 260.096 302.31 259.033C302.235 257.971 301.97 257.925 301.037 258.858C300.433 259.462 299.678 259.804 299.419 259.545C298.851 258.977 299.651 257.143 301.465 255.225C302.675 253.911 302.517 253.863 300.561 255.199C298.498 256.538 298.443 256.593 299.711 255.118C302.132 252.49 300.324 252.438 296.944 255.094C294.219 257.198 293.789 257.318 294.632 255.855L295.642 254.121L294.163 255.496C293.124 256.432 292.213 256.619 291.321 256.167C290.223 255.507 289.519 255.901 287.214 258.206C285.568 259.852 284.174 261.97 283.874 263.097C283.565 264.544 282.787 265.632 281.486 266.416C279.859 267.423 279.7 267.374 279.955 265.983C280.151 264.752 279.999 264.491 279.244 264.833C278.704 265.062 278.824 264.632 279.592 263.864C280.638 262.715 280.644 262.501 279.572 262.746C278.875 262.927 278.452 262.833 278.726 262.559C279 262.284 278.206 262.148 276.924 262.293L274.628 262.521L276.167 260.878C277.539 259.506 277.491 259.348 276.196 259.919C275.118 260.377 274.853 260.332 275.405 259.676C275.792 259.186 275.101 259.153 273.806 259.724L271.436 260.647L273.305 258.674C274.677 257.302 274.851 256.818 273.999 256.843C273.039 256.872 272.265 257.854 270.903 260.663C269.487 263.527 269.358 264.276 270.385 263.766C271.192 263.476 270.249 264.728 268.274 266.704C265.637 269.445 264.442 270.226 263.276 270.047C261.949 269.927 261.693 269.562 261.945 268.277C262.135 267.26 261.983 266.998 261.437 267.44C261.053 267.824 259.71 268.237 258.431 268.275C256.564 268.384 255.641 268.998 253.327 271.622L250.463 274.795L248.027 272.579C246.625 271.396 244.444 269.545 243.036 268.575C240.745 266.833 240.481 266.788 239.047 268.428C238.221 269.358 237.766 270.33 238.021 270.695C238.28 270.953 237.854 270.966 237.011 270.672C235.641 270.18 235.638 270.287 236.93 271.579C239.871 274.739 236.773 273.287 233.044 269.778C230.922 267.765 228.376 265.659 227.436 265.048C226.444 264.385 225.933 263.655 226.263 263.326C226.537 263.052 228.007 263.753 229.461 264.987L232.107 267.304L229.321 264.299C227.774 262.642 226.546 260.975 226.558 260.549C226.623 260.174 226.377 259.489 226.07 259.073C225.763 258.656 224.764 256.45 223.768 254.137C222.077 250.141 218.872 246.936 217.72 248.088C217.446 248.363 216.922 248.059 216.567 247.484C214.133 243.404 213.875 243.145 214.366 244.515C214.861 245.778 214.699 245.836 212.797 245.36C211.266 244.927 210.73 245.049 210.866 245.844C211.057 246.584 210.789 246.645 210.013 245.869C209.393 245.249 208.543 245.168 208.104 245.607C207.556 246.156 207.798 246.947 208.884 248.033C209.918 249.067 210.115 249.593 209.369 249.615C208.73 249.634 205.505 247.069 202.084 243.976C195.554 237.996 195.153 237.156 201.094 241.45C204.377 243.855 204.535 243.903 202.522 241.781C201.333 240.592 200.68 239.28 200.954 239.006C201.284 238.676 200.676 237.63 199.642 236.596C198.66 235.614 198.101 234.725 198.479 234.554C198.853 234.49 194.614 230.251 189.176 225.142C183.632 220.037 178.143 214.877 176.847 213.691C175.397 212.35 174.347 211.849 173.908 212.288C173.414 212.782 172.109 211.916 169.262 209.179C167.036 207.063 165.598 205.296 165.921 205.18C166.296 205.115 164.983 202.705 162.99 199.943C160.996 197.181 159.683 194.771 160.006 194.655C160.381 194.591 160.142 193.693 159.482 192.594C158.875 191.548 158.432 190.336 158.551 189.907C158.618 189.426 156.305 186.673 153.358 183.727C150.411 180.78 148.098 178.027 148.217 177.598C148.336 177.168 149.447 175.644 150.819 174.273C152.252 172.633 152.923 171.548 152.393 171.457C151.864 171.366 152.91 170.217 155.257 168.284C157.329 166.625 158.869 164.982 158.775 164.559C158.49 163.396 160.927 160.235 166.315 154.538C168.952 151.797 170.501 149.834 169.742 150.283C168.987 150.625 166.246 153.262 163.712 156.106C159.251 161.084 159.035 161.197 156.484 161.06C154.41 160.962 153.438 161.417 152.06 163.002C151.014 164.151 150.453 165.126 150.824 165.168C151.141 165.266 151.848 164.765 152.293 164.113C152.739 163.461 153.662 162.848 154.359 162.667C155.163 162.484 154.331 163.626 152.026 165.931C150.05 167.907 147.626 170.641 146.681 172C145.293 173.905 144.805 174.186 144.669 173.391C144.527 172.81 144.924 171.999 145.628 171.606C146.441 171.102 146.622 170.405 146.166 169.62C145.558 168.573 146.007 167.815 148.531 165.29C150.232 163.589 151.449 162.062 151.191 161.803C150.984 161.597 148.74 163.634 146.158 166.319C141.981 170.703 141.655 170.926 143.656 168.098C144.879 166.357 148.355 162.261 151.328 158.978C154.298 155.801 156.783 152.799 156.9 152.476C157.019 152.047 158.562 150.297 160.266 148.489C164.882 143.666 164.197 143.42 159.371 148.143C156.301 151.11 155.649 151.555 156.818 149.87C157.708 148.565 158.063 147.384 157.591 147.131C157.175 146.824 157.41 146.072 158.069 145.414C159.111 144.371 159.27 144.419 159.025 145.491C158.783 146.457 159.706 145.844 161.959 143.487C164.154 141.292 164.713 140.424 163.741 140.879L162.23 141.563L163.069 140.207C163.688 139.07 163.527 139.128 162.323 140.229C161.445 141.107 160.531 141.4 160.331 140.98C160.024 140.564 158.78 141.186 157.195 142.565C155.772 143.885 153.76 145.276 152.682 145.734L150.793 146.589L152.33 145.052C153.156 144.123 154.105 142.657 154.398 141.743C154.866 140.345 155.03 140.18 155.431 141.02C155.726 141.863 156.213 141.582 157.375 140.11C161.197 135.152 173.631 121.684 174.925 121.113C175.413 120.832 175.888 120.977 175.982 121.4C176.075 121.824 176.721 121.591 177.383 120.826C178.096 120.113 178.161 119.738 177.676 119.912C175.894 120.764 175.774 119.437 177.466 118.055C178.392 117.336 180.819 114.495 182.872 111.718C184.977 108.993 185.819 107.531 184.779 108.467C183.685 109.458 182.82 109.91 182.729 109.38C182.583 108.905 181.993 109.083 181.389 109.686C180.511 110.564 180.033 110.525 179.735 109.789C179.238 108.632 177.049 110.614 170.316 118.588ZM171.785 119.29C172.209 119.384 172.193 119.916 171.644 120.465C170.876 121.233 170.924 121.392 171.835 121.205C172.749 120.911 172.794 121.176 172.178 122.206C171.729 122.965 170.854 123.736 170.212 123.862C169.246 124.104 169.252 123.891 170.076 123.067C170.899 122.244 170.905 122.031 169.94 122.273C168.974 122.515 168.874 122.305 169.49 121.275C170.778 119.16 170.939 119.102 171.785 119.29ZM159.488 135.309C159.479 135.629 159.037 136.174 158.497 136.403C157.903 136.687 157.913 136.368 158.516 135.764C159.068 135.109 159.553 134.934 159.488 135.309ZM163.878 130.919C163.869 131.239 163.427 131.784 162.887 132.013C162.293 132.297 162.303 131.977 162.907 131.374C163.458 130.718 163.943 130.544 163.878 130.919ZM147.481 148.764C147.574 149.187 147.339 149.94 147.01 150.269C146.626 150.653 146.474 150.391 146.657 149.587C147.08 147.924 147.299 147.705 147.481 148.764ZM152.429 143.506C151.984 144.158 150.996 145.145 150.234 145.701C149.417 146.311 149.753 145.768 150.96 144.561C152.116 143.302 152.768 142.857 152.429 143.506ZM155.837 145.267C155.556 145.755 154.788 146.523 154.191 146.913C153.487 147.307 153.713 146.875 154.591 145.996C155.524 145.064 156.011 144.783 155.837 145.267ZM153.326 149.122C153.801 149.268 153.633 149.539 153.039 149.823C151.689 150.449 151.163 150.251 151.931 149.483C152.26 149.154 152.851 148.977 153.326 149.122ZM148.86 157.827L145.278 161.927L150.423 157.195L155.517 152.411L151.266 157.489C148.949 160.22 146.589 162.58 146.001 162.65C145.039 162.786 144.606 163.012 143.454 164.164C143.125 164.493 142.86 164.448 142.873 164.022C142.853 162.904 148.146 156.783 150.487 155.063C151.794 154.066 151.288 154.986 148.86 157.827ZM123.198 184.627C123.447 185.205 123.127 185.214 122.559 184.646C121.935 184.132 121.789 183.657 122.161 183.699C122.481 183.69 123.001 184.1 123.198 184.627ZM144.987 169.868C145.246 170.127 145.175 170.714 144.736 171.153C144.297 171.592 143.49 171.883 143.067 171.789C142.592 171.643 142.714 171.107 143.318 170.503C143.976 169.845 144.677 169.558 144.987 169.868ZM157.45 162.575C158.361 162.388 156.982 163.973 153.199 167.653C148.154 172.595 147.937 172.708 150.59 169.435C155.232 163.759 156.055 162.936 157.45 162.575ZM135.316 194.221C136.402 195.306 136.651 195.885 135.905 195.907C135.372 195.923 134.539 195.309 134.031 194.472C132.922 192.376 133.404 192.308 135.316 194.221ZM176.45 214.502C176.864 214.915 176.955 215.445 176.625 215.774C176.351 216.049 175.611 215.858 174.991 215.237C174.422 214.669 174.387 214.084 174.816 213.965C175.3 213.791 176.037 214.088 176.45 214.502ZM181.67 223.343C182.233 224.125 181.606 223.718 180.313 222.425C179.021 221.133 178.614 220.506 179.344 221.017C180.126 221.579 181.16 222.613 181.67 223.343ZM191.154 228.437C192.234 229.736 191.042 228.654 188.508 226.121C185.924 223.536 185.048 222.55 186.502 223.785C187.956 225.019 190.075 227.139 191.154 228.437ZM209.781 253.649C210.133 254.331 209.61 254.027 208.628 253.045C207.646 252.062 207.342 251.539 207.972 251.84C208.598 252.247 209.426 253.074 209.781 253.649ZM211.536 250.136C211.959 250.23 212.108 250.598 211.834 250.873C211.504 251.202 210.972 251.218 210.713 250.959C210.403 250.649 210.306 250.333 210.416 250.223C210.58 250.058 211.061 249.991 211.536 250.136ZM240.508 285.474C240.757 286.052 240.438 286.062 239.869 285.493C239.245 284.979 239.1 284.505 239.471 284.547C239.791 284.537 240.311 284.948 240.508 285.474ZM269.495 268.584C269.919 268.678 269.841 269.479 269.286 270.241C268.396 271.545 268.45 271.49 269.871 270.276C271.953 268.298 272.328 269.99 270.243 272.075C267.993 274.325 266.434 274.851 265.348 273.766C264.572 272.99 264.75 272.399 266.506 270.643C267.713 269.436 269.017 268.545 269.495 268.584ZM268.839 274.513C269.369 274.604 269.082 275.304 268.259 276.128C267.436 276.951 266.735 277.238 266.644 276.708C266.499 276.233 266.786 275.533 267.225 275.094C267.664 274.655 268.365 274.368 268.839 274.513ZM286.209 263.347C285.293 265.504 284.25 266.546 284.014 265.542C283.869 265.067 284.485 264.037 285.36 263.266C286.677 261.949 286.783 261.946 286.209 263.347Z" fill="#AE6D63"/>
<path d="M210.324 78.4763C211.987 78.054 210.271 82.0449 208.211 83.2777C207.126 83.9489 206.565 84.924 206.481 85.938C206.437 87.43 206.595 87.4786 207.893 86.801C208.597 86.4073 209.481 85.3161 209.826 84.454C210.12 83.5401 211.233 81.9097 212.276 80.8671C213.373 79.7695 213.993 78.633 213.734 78.3745C213.424 78.0644 214.15 76.9247 215.251 75.7206L217.282 73.6901L213.814 75.7102C209.859 78.0111 208.768 78.8955 210.324 78.4763Z" fill="#AE6D63"/>
<path d="M227.547 70.4556C228.309 69.9005 229.297 68.9127 229.742 68.2605C230.081 67.6115 229.429 68.0569 228.273 69.3159C227.066 70.5232 226.73 71.0656 227.547 70.4556Z" fill="#AE6D63"/>
<path d="M164.723 134.727C164.543 135.424 163.542 136.838 162.499 137.881C159.81 140.57 160.889 140.112 164.763 136.962C166.564 135.47 167.607 134.428 167.013 134.712C166.257 135.054 166.102 134.899 166.286 134.095C166.463 133.504 166.208 133.139 165.778 133.258C165.349 133.377 164.852 133.978 164.723 134.727Z" fill="#AE6D63"/>
<path d="M206.817 92.5297C207.957 91.8035 209.603 90.1572 210.384 88.9627C211.446 87.2805 211.013 87.5064 208.159 90.36C205.306 93.2136 205.08 93.6463 206.817 92.5297Z" fill="#AE6D63"/>
<path d="M218.735 80.3017C219.167 80.0758 219.826 79.4173 220.107 78.9297C220.281 78.4454 219.903 78.6164 219.135 79.3846C218.366 80.1529 218.195 80.5307 218.735 80.3017Z" fill="#AE6D63"/>
<path d="M175.624 124.446C176.222 124.055 177.1 123.177 177.545 122.525C177.884 121.876 177.342 122.212 176.299 123.254C175.256 124.297 174.921 124.839 175.624 124.446Z" fill="#AE6D63"/>
<path d="M179.466 120.604C180.063 120.214 180.831 119.446 181.112 118.958C181.286 118.474 180.799 118.754 179.866 119.687C178.988 120.565 178.762 120.998 179.466 120.604Z" fill="#AE6D63"/>
<path d="M187.391 113.713C187.93 113.484 188.373 112.938 188.382 112.619C188.447 112.244 187.962 112.418 187.41 113.074C186.807 113.677 186.797 113.997 187.391 113.713Z" fill="#AE6D63"/>
<path d="M231.714 73.5256C232.254 73.2965 232.696 72.7509 232.705 72.4312C232.77 72.0566 232.285 72.2308 231.733 72.8861C231.13 73.4898 231.12 73.8095 231.714 73.5256Z" fill="#AE6D63"/>
<path d="M234.962 69.9681C235.427 70.4334 237.332 69.0455 237.192 68.3576C237.102 67.8279 236.511 68.0053 235.907 68.6089C235.249 69.2674 234.858 69.8647 234.962 69.9681Z" fill="#AE6D63"/>
<path d="M167.445 139.863C168.207 139.308 169.304 138.21 169.914 137.394C170.469 136.632 169.817 137.077 168.445 138.449C167.073 139.821 166.628 140.473 167.445 139.863Z" fill="#AE6D63"/>
<path d="M183.359 123.949C183.792 123.723 184.45 123.064 184.731 122.577C184.905 122.092 184.527 122.263 183.759 123.032C182.991 123.8 182.82 124.178 183.359 123.949Z" fill="#AE6D63"/>
<path d="M255.914 54.702C256.431 55.219 258.249 54.9518 258.32 54.364C258.272 54.2058 257.639 54.0117 256.838 54.0888C256.037 54.166 255.656 54.4435 255.914 54.702Z" fill="#AE6D63"/>
<path d="M234.035 77.8219C234.345 78.1321 234.171 78.6164 233.632 78.8455C232.605 79.3553 231.628 81.7802 232.429 81.7031C232.697 81.6418 234.017 80.2182 235.292 78.5298C236.621 76.7864 237.128 75.8662 236.473 76.4182L235.272 77.4123L235.904 75.8495C236.478 74.4482 236.372 74.4513 235.055 75.7684C234.125 76.5947 233.725 77.5117 234.035 77.8219Z" fill="#AE6D63"/>
<path d="M182.007 133.572C182.546 133.343 182.988 132.797 182.998 132.478C183.062 132.103 182.578 132.277 182.026 132.933C181.422 133.536 181.413 133.856 182.007 133.572Z" fill="#AE6D63"/>
<path d="M148.5 168.113C148.933 167.887 149.591 167.228 149.872 166.741C150.046 166.257 149.669 166.428 148.9 167.196C148.132 167.964 147.961 168.342 148.5 168.113Z" fill="#AE6D63"/>
<path d="M158.237 159.41C158.631 160.463 158.738 160.46 158.821 159.446C158.843 158.7 158.594 158.122 158.275 158.132C157.955 158.141 157.884 158.729 158.237 159.41Z" fill="#AE6D63"/>
<path d="M168.805 147.808C169.344 147.579 169.786 147.034 169.796 146.714C169.86 146.339 169.376 146.514 168.824 147.169C168.22 147.773 168.211 148.092 168.805 147.808Z" fill="#AE6D63"/>
<path d="M240.632 76.1876C239.516 77.9245 239.564 78.0828 240.752 77.515C241.724 77.06 242.228 76.2464 242.259 75.1807C242.285 74.3281 242.249 73.7435 242.139 73.8533C242.026 74.0696 241.358 75.0479 240.632 76.1876Z" fill="#AE6D63"/>
<path d="M160.267 157.38C160.864 156.989 161.633 156.221 161.913 155.734C162.087 155.249 161.6 155.53 160.667 156.463C159.789 157.341 159.563 157.774 160.267 157.38Z" fill="#AE6D63"/>
<path d="M185.753 132.928C186.844 132.044 188.326 130.562 189.046 129.635C189.765 128.709 188.839 129.429 187.028 131.239C185.217 133.05 184.662 133.812 185.753 132.928Z" fill="#AE6D63"/>
<path d="M232.398 86.2825C232.938 86.0535 233.38 85.5079 233.389 85.1882C233.454 84.8136 232.969 84.9878 232.417 85.6431C231.814 86.2467 231.804 86.5665 232.398 86.2825Z" fill="#AE6D63"/>
<path d="M169.711 153.105C170.251 152.876 170.693 152.331 170.702 152.011C170.767 151.636 170.282 151.81 169.73 152.466C169.127 153.069 169.117 153.389 169.711 153.105Z" fill="#AE6D63"/>
<path d="M145.52 210.899C147.122 212.502 147.597 212.648 147.199 211.701C146.653 210.387 143.952 208.125 143.513 208.564C143.403 208.673 144.276 209.765 145.52 210.899Z" fill="#AE6D63"/>
<path d="M151.798 218.166C152.783 219.041 153.704 220.291 153.792 220.928C153.931 221.616 154.193 221.768 154.26 221.286C154.38 220.857 158.163 224.311 163.326 229.694C169.417 236.114 172.321 238.689 172.705 238.305C173.035 237.976 172.585 236.977 171.707 236.099C170.828 235.22 170.479 234.432 171.015 234.309C171.499 234.135 171.515 233.602 170.998 233.085C167.909 229.557 166.562 228.32 165.812 228.448C165.383 228.568 162.989 226.723 160.556 224.399C158.175 222.128 155.015 219.188 153.564 217.847C152.22 216.503 150.805 215.746 150.531 216.021C150.202 216.35 150.758 217.345 151.798 218.166Z" fill="#AE6D63"/>
<path d="M165.366 213.076C166.193 213.903 166.613 214.103 166.261 213.422C165.905 212.847 165.182 212.123 164.71 211.871C164.235 211.725 164.487 212.197 165.366 213.076Z" fill="#AE6D63"/>
<path d="M171.842 206.6C172.255 207.014 172.837 207.156 173.166 206.827C173.44 206.552 173.188 206.081 172.61 205.832C171.977 205.638 171.395 205.495 171.286 205.605C171.176 205.715 171.428 206.187 171.842 206.6Z" fill="#AE6D63"/>
<path d="M160.558 222.536C161.282 223.26 161.65 223.408 161.453 222.882C161.253 222.462 160.632 221.842 160.161 221.589C159.686 221.444 159.835 221.812 160.558 222.536Z" fill="#AE6D63"/>
<path d="M168.468 216.177C169.295 217.004 169.715 217.205 169.363 216.523C169.007 215.948 168.283 215.225 167.812 214.972C167.337 214.827 167.589 215.299 168.468 216.177Z" fill="#AE6D63"/>
<path d="M179.612 213.822C182.51 216.61 185.211 218.872 185.582 218.914C185.957 218.85 183.95 216.514 181.055 213.619C178.212 210.776 175.511 208.514 175.137 208.578C174.707 208.697 176.765 211.085 179.612 213.822Z" fill="#AE6D63"/>
<path d="M173.307 227.053C173.221 228.174 175.091 229.715 175.695 229.112C176.024 228.782 175.675 227.994 174.951 227.271C173.607 225.926 173.342 225.881 173.307 227.053Z" fill="#AE6D63"/>
<path d="M178.639 226.788C178.553 227.908 181.502 230.749 182.985 231.024C183.621 231.111 183.999 230.94 183.957 230.569C183.566 229.409 178.61 225.99 178.639 226.788Z" fill="#AE6D63"/>
<path d="M187.893 221.773C188.229 222.988 197.745 232.393 198.755 232.416C199.233 232.455 200.286 232.85 201.02 233.254C201.698 233.713 199.165 231.18 195.333 227.567C188.548 221.221 187.453 220.455 187.893 221.773Z" fill="#AE6D63"/>
<path d="M174.706 240.854C174.955 241.432 175.675 242.262 176.302 242.67C177.035 243.074 176.941 242.65 176.02 241.4C174.592 239.313 173.959 239.119 174.706 240.854Z" fill="#AE6D63"/>
<path d="M183.841 238.026C185.237 239.422 185.915 239.88 185.198 238.944C184.532 238.058 183.395 236.921 182.613 236.359C181.883 235.848 182.393 236.578 183.841 238.026Z" fill="#AE6D63"/>
<path d="M180.108 245.378C180.831 246.101 181.2 246.25 181.002 245.724C180.802 245.304 180.182 244.683 179.71 244.431C179.235 244.286 179.384 244.654 180.108 245.378Z" fill="#AE6D63"/>
<path d="M194.112 241.712C195.663 243.263 196.445 243.825 195.728 242.888C195.062 242.003 193.821 240.762 192.884 240.045C191.999 239.379 192.561 240.161 194.112 241.712Z" fill="#AE6D63"/>
<path d="M187.269 249.796C189.983 251.631 190.464 251.564 188.5 249.599C187.621 248.72 186.523 248.061 186.038 248.235C185.502 248.358 185.964 248.93 187.269 249.796Z" fill="#AE6D63"/>
<path d="M186.828 252.098C187.81 253.08 188.334 253.384 187.981 252.703C187.626 252.128 186.799 251.3 186.172 250.893C185.542 250.593 185.846 251.116 186.828 252.098Z" fill="#AE6D63"/>
<path d="M196.538 249.626C198.089 251.176 198.871 251.739 198.153 250.802C197.488 249.917 196.247 248.676 195.31 247.959C194.425 247.293 194.987 248.075 196.538 249.626Z" fill="#AE6D63"/>
<path d="M329.285 116.878C330.009 117.602 330.377 117.751 330.18 117.224C329.98 116.804 329.359 116.184 328.888 115.932C328.413 115.786 328.562 116.155 329.285 116.878Z" fill="#AE6D63"/>
<path d="M197.994 254.374C199.544 255.925 200.326 256.487 199.609 255.55C198.943 254.665 197.702 253.424 196.766 252.707C195.88 252.041 196.443 252.823 197.994 254.374Z" fill="#AE6D63"/>
<path d="M193.801 259.29C194.886 260.376 196.812 261.862 198.068 262.57C199.325 263.278 202.966 266.151 206.129 268.985C214.322 276.3 214.322 276.3 211.66 272.759C210.273 271.044 208.467 269.128 207.524 268.623C205.744 267.612 204.619 266.048 205.64 265.752C206.176 265.629 204.832 264.285 198.099 257.991C196.544 256.546 195.966 256.298 195.566 257.215C195.227 257.863 194.743 258.038 194.278 257.572C193.916 257.211 193.179 256.913 192.695 257.087C192.159 257.21 192.612 258.101 193.801 259.29ZM199.708 261.137C199.906 261.664 199.537 261.515 198.814 260.791C198.09 260.067 197.941 259.699 198.416 259.845C198.888 260.097 199.508 260.717 199.708 261.137Z" fill="#AE6D63"/>
<path d="M335.656 135.322C336.38 136.046 336.748 136.194 336.551 135.668C336.35 135.248 335.73 134.628 335.258 134.375C334.784 134.23 334.932 134.598 335.656 135.322Z" fill="#AE6D63"/>
<path d="M343.178 129.454C343.993 130.707 346.584 133.079 348.874 134.821L353.145 137.994L347.617 132.356C344.567 129.306 341.976 126.934 341.866 127.044C341.756 127.154 342.364 128.201 343.178 129.454Z" fill="#AE6D63"/>
<path d="M207.63 266.863C207.927 267.6 208.441 268.223 208.761 268.214C209.72 268.185 209.383 266.971 208.182 266.208C207.138 265.494 207.083 265.549 207.63 266.863Z" fill="#AE6D63"/>
<path d="M210.409 264.704C211.133 265.428 211.501 265.577 211.304 265.05C211.104 264.63 210.483 264.01 210.012 263.758C209.537 263.612 209.686 263.98 210.409 264.704Z" fill="#AE6D63"/>
<path d="M213.384 272.069C214.108 272.793 214.476 272.941 214.279 272.415C214.078 271.995 213.458 271.375 212.986 271.122C212.511 270.977 212.66 271.345 213.384 272.069Z" fill="#AE6D63"/>
<path d="M340.763 151.514C341.332 152.082 341.651 152.073 341.402 151.495C341.205 150.968 340.685 150.558 340.365 150.567C339.994 150.525 340.139 151 340.763 151.514Z" fill="#AE6D63"/>
<path d="M225.179 281.779C225.645 282.244 225.309 282.787 224.389 283.293C223.091 283.971 223.188 284.287 225.98 287.079C228.619 289.609 228.984 289.864 228.867 288.43C228.735 287.529 228.97 286.777 229.29 286.767C230.301 286.79 228.264 283.657 226.336 282.277C225.399 281.559 224.872 281.362 225.179 281.779Z" fill="#AE6D63"/>
<path d="M229.655 281.645C230.948 282.938 231.575 283.345 231.012 282.563C230.502 281.833 229.468 280.799 228.686 280.237C227.956 279.726 228.363 280.353 229.655 281.645Z" fill="#AE6D63"/>
<path d="M233.347 289.947C233.916 290.516 234.236 290.506 233.987 289.928C233.79 289.401 233.269 288.991 232.95 289.001C232.578 288.958 232.724 289.433 233.347 289.947Z" fill="#AE6D63"/>
<path d="M263.26 263.446C262.744 264.686 263.067 264.57 264.975 263.076C266.286 261.972 268.096 260.161 268.987 258.856L270.653 256.571L268.096 258.404C264.993 260.679 264.17 261.502 263.26 263.446Z" fill="#AE6D63"/>
<path d="M235.645 293.232C236.369 293.956 236.737 294.105 236.54 293.578C236.339 293.158 235.719 292.538 235.247 292.286C234.773 292.14 234.921 292.509 235.645 293.232Z" fill="#AE6D63"/>
<path d="M278.097 249.747C278.52 249.841 279.602 249.276 280.373 248.401C281.69 247.084 281.693 246.978 280.292 247.552C278.135 248.468 277.092 249.511 278.097 249.747Z" fill="#AE6D63"/>
<path d="M304.32 227.349C304.859 227.12 305.301 226.575 305.311 226.255C305.375 225.88 304.891 226.054 304.339 226.71C303.735 227.313 303.726 227.633 304.32 227.349Z" fill="#AE6D63"/>
<path d="M281.716 253.366C283.398 252.304 283.172 252.737 280.534 255.477C277.949 258.27 277.668 258.757 279.179 258.073C280.151 257.618 281.297 256.679 281.691 255.975C282.31 254.839 282.414 254.942 283.002 256.628C283.342 257.736 283.468 258.85 283.139 259.179C282.865 259.454 283.233 259.603 283.931 259.422C284.628 259.241 286.81 257.473 288.734 255.445C290.71 253.47 291.597 252.272 290.781 252.882C290.019 253.437 289.269 253.566 289.176 253.143C289.082 252.72 288.074 252.59 287.002 252.835C284.968 253.215 284.968 253.215 286.782 251.298C287.937 250.039 288.108 249.661 287.295 250.164C286.536 250.613 285.409 250.913 284.776 250.719C284.088 250.58 282.79 251.257 281.634 252.516L279.656 254.598L281.716 253.366ZM287.264 254.744C286.984 255.231 286.325 255.89 285.893 256.116C285.353 256.345 285.524 255.967 286.293 255.199C287.061 254.431 287.439 254.26 287.264 254.744Z" fill="#AE6D63"/>
<path d="M306.901 228.284C307.866 228.042 308.525 227.383 308.822 226.363C309.125 225.129 308.908 225.242 307.317 226.834C305.725 228.425 305.612 228.642 306.901 228.284Z" fill="#AE6D63"/>
<path d="M333.278 202.527C334.039 201.972 335.137 200.875 335.747 200.058C336.302 199.296 335.65 199.741 334.278 201.113C332.906 202.485 332.461 203.137 333.278 202.527Z" fill="#AE6D63"/>
<path d="M351.384 184.524C349.454 186.765 350.161 188.022 352.247 185.936C353.015 185.168 353.493 185.207 353.79 185.943C354.14 186.732 354.676 186.609 355.825 185.563C356.7 184.792 358.068 183.526 358.998 182.7C360.8 181.209 360.512 180.153 358.668 181.272C357.964 181.666 358.574 180.849 360.004 179.316C363.465 175.752 363.248 175.865 364.931 176.56C366.298 177.158 366.185 177.375 361.472 181.881C354.131 188.808 353.231 190.432 359.955 184.535C365.533 179.577 365.478 179.632 358.241 186.662C354.128 190.672 351.272 193.632 351.976 193.238C353.767 192.067 354.143 193.759 352.587 195.935C351.529 197.511 351.906 197.34 354.686 195.18C356.539 193.741 360.042 190.548 362.508 188.185C364.923 185.771 367.599 183.508 368.461 183.163C369.323 182.818 369.694 182.86 369.365 183.189C369.033 183.625 368.91 184.161 369.22 184.471C369.479 184.73 369.85 184.772 370.125 184.498C371.012 183.3 371.49 183.339 371.61 184.666C371.682 185.835 371.837 185.99 372.605 185.222C373.099 184.728 373.173 184.034 372.76 183.62C371.984 182.845 372.8 180.478 373.814 180.394C374.134 180.385 374.276 180.966 374.096 181.664C373.851 182.736 374.009 182.784 374.939 181.958C376.472 180.528 378.89 178.007 381.149 175.437C382.198 174.181 383.609 173.288 384.407 173.317C385.579 173.282 385.521 173.443 384.33 174.118C383.519 174.515 382.913 175.225 383.007 175.648C383.1 176.071 384.075 175.51 385.225 174.464C387.197 172.595 387.197 172.595 385.282 172.546C384.113 172.474 383.535 172.225 383.864 171.896C384.248 171.512 384.264 170.979 383.954 170.669C383.695 170.41 383.372 170.526 383.198 171.011C382.898 172.138 381.496 170.955 379.195 167.776C378.94 167.411 378.401 167.64 378.01 168.237C377.345 169.109 376.816 169.018 375.575 167.778C374.438 166.64 373.75 166.501 373.091 167.16C371.225 169.025 370.254 171.237 370.978 171.961C371.753 172.736 370.704 173.992 367.892 175.46C366.378 176.251 366.271 176.254 367.101 175.218C368.037 174.178 367.985 174.127 366.313 174.869C365.286 175.378 364.385 175.246 364.136 174.667C363.842 173.824 362.815 174.334 359.703 176.929C357.517 178.805 355.17 180.738 354.463 181.238C353.808 181.79 352.433 183.269 351.384 184.524ZM373.102 168.597C373.257 168.752 373.296 169.23 373.121 169.714C373.002 170.144 372.624 170.315 372.366 170.056C372.056 169.746 372.072 169.213 372.346 168.939C372.675 168.609 372.998 168.493 373.102 168.597ZM369.423 175.894C369.733 176.204 369.824 176.734 369.76 177.108C369.64 177.538 369.214 177.55 368.8 177.137C368.387 176.723 368.245 176.142 368.519 175.867C368.738 175.648 369.165 175.635 369.423 175.894ZM367.075 181.447C367.811 181.745 367.479 182.181 365.9 183.346C364.705 184.127 362.194 186.225 360.276 188.039C356.825 191.283 356.825 191.283 360.905 186.583C365.812 180.953 365.921 180.843 367.075 181.447ZM372.911 174.991C373.066 175.146 373.105 175.624 372.931 176.109C372.811 176.538 372.434 176.709 372.175 176.45C371.865 176.14 371.881 175.607 372.155 175.333C372.484 175.004 372.807 174.888 372.911 174.991ZM371.72 177.422C371.711 177.742 371.268 178.288 370.729 178.517C370.135 178.801 370.145 178.481 370.748 177.877C371.3 177.222 371.785 177.048 371.72 177.422ZM373.82 178.424C373.81 178.744 373.368 179.29 372.829 179.519C372.235 179.803 372.244 179.483 372.848 178.879C373.4 178.224 373.884 178.05 373.82 178.424Z" fill="#AE6D63"/>
<path d="M290.41 247.463C290.949 247.234 291.391 246.688 291.401 246.368C291.465 245.994 290.981 246.168 290.429 246.823C289.825 247.427 289.816 247.747 290.41 247.463Z" fill="#AE6D63"/>
<path d="M306.873 231C307.306 230.774 307.964 230.115 308.245 229.628C308.419 229.143 308.041 229.314 307.273 230.083C306.505 230.851 306.334 231.229 306.873 231Z" fill="#AE6D63"/>
<path d="M309.607 228.576C310.137 228.666 309.411 229.806 307.765 231.452C305.734 233.483 305.173 234.458 305.519 235.352C306.262 237.194 306.856 236.91 311.344 232.836C315.392 229.202 315.447 229.147 313.583 229.149C312.356 229.239 311.781 228.883 312.062 228.396C312.342 227.908 311.977 227.653 310.967 227.63C309.206 227.736 308.338 228.294 309.607 228.576Z" fill="#AE6D63"/>
<path d="M368.6 169.583C370.37 169.157 373.113 166.414 372.441 165.741C372.131 165.431 370.882 166.267 369.62 167.529C367.864 169.285 367.634 169.825 368.6 169.583Z" fill="#AE6D63"/>
<path d="M335.639 203.681C335.4 204.54 335.885 204.366 337.147 203.104C338.08 202.171 338.799 201.244 338.696 201.141C338.231 200.676 335.884 202.609 335.639 203.681Z" fill="#AE6D63"/>
<path d="M362.72 179.288C363.153 179.062 363.811 178.404 364.092 177.916C364.266 177.432 363.889 177.603 363.12 178.371C362.352 179.139 362.181 179.517 362.72 179.288Z" fill="#AE6D63"/>
<path d="M337.962 206.114C338.724 205.559 339.712 204.571 340.157 203.919C340.496 203.27 339.844 203.716 338.688 204.975C337.481 206.182 337.145 206.724 337.962 206.114Z" fill="#AE6D63"/>
<path d="M242.877 302.44C243.355 302.479 243.446 303.009 243.271 303.493C242.93 304.249 243.085 304.404 244.095 304.427C245.213 304.447 245.329 304.124 244.734 302.651C244.336 301.704 244.352 301.171 244.663 301.482C245.079 301.789 245.609 301.879 245.938 301.55C246.213 301.276 245.96 300.804 245.382 300.555C244.749 300.361 243.784 300.603 243.18 301.206C242.631 301.755 242.454 302.346 242.877 302.44Z" fill="#AE6D63"/>
<path d="M342.869 202.241C343.302 202.015 343.96 201.357 344.241 200.869C344.415 200.385 344.037 200.556 343.269 201.324C342.501 202.092 342.33 202.47 342.869 202.241Z" fill="#AE6D63"/>
<path d="M307.826 238.318C310.496 236.269 312.527 235.995 310.713 237.913C309.506 239.12 309.502 239.227 310.797 238.655C312.147 238.03 312.14 238.243 311.27 240.664C310.747 242.118 309.734 243.958 309.02 244.671C307.429 246.263 308.305 247.248 310.158 245.809C310.92 245.253 311.775 245.121 312.082 245.538C312.283 245.958 313.032 245.829 313.581 245.281C314.184 244.677 315.101 244.277 315.525 244.371C315.948 244.465 315.987 244.943 315.548 245.382C315.054 245.875 314.876 246.466 315.135 246.725C315.755 247.345 319.966 245.409 320.262 244.389C320.382 243.96 321.421 243.023 322.558 242.404C323.749 241.729 324.792 240.687 324.972 239.989C325.211 239.13 324.946 239.085 324.068 239.963C323.355 240.676 322.599 241.018 322.34 240.76C322.03 240.45 320.839 241.124 319.638 242.118C318.272 243.277 319.331 241.702 322.146 238.37C325.07 234.929 326.351 233.027 325.541 233.424C324.514 233.934 324.146 233.785 324.326 233.087C324.8 231.476 323.751 230.975 322.488 232.237C321.885 232.841 321.297 232.912 321.203 232.489C321.058 232.014 320.467 232.191 319.808 232.85C319.15 233.508 318.556 233.792 318.62 233.418C318.578 233.046 317.948 232.745 317.147 232.823C316.349 232.793 315.342 232.664 314.87 232.411C314.292 232.162 312.552 233.386 309.811 236.023C307.509 238.221 306.628 239.206 307.826 238.318Z" fill="#AE6D63"/>
<path d="M339.481 208.731C340.572 207.846 342.054 206.365 342.774 205.438C343.493 204.512 342.567 205.231 340.756 207.042C338.945 208.853 338.39 209.615 339.481 208.731Z" fill="#AE6D63"/>
<path d="M359.959 193.319C357.855 196.044 356.683 197.836 357.284 197.339C357.887 196.735 358.368 196.668 358.41 197.039C358.321 198.266 360.94 197.922 362.366 196.495L363.793 195.068L363.413 197.103L362.978 199.192L365.129 198.489C366.527 198.021 368.819 196.143 371.508 193.454C373.761 191.097 374.758 189.79 373.832 190.509C372.799 191.232 371.129 191.868 370.064 191.9C368.145 191.957 368.094 191.905 369.588 189.997L371.137 188.034L369.275 189.794C366.65 192.108 366.436 190.357 368.964 187.727L370.942 185.644L367.956 187.597C365.622 189.104 365.086 189.227 365.599 188.093C367.015 185.229 363.948 188.089 359.959 193.319Z" fill="#AE6D63"/>
<path d="M346.054 211.463C346.652 211.072 347.42 210.304 347.701 209.816C347.875 209.332 347.387 209.613 346.454 210.546C345.576 211.424 345.351 211.856 346.054 211.463Z" fill="#AE6D63"/>
<path d="M346.249 213.853C345.572 215.151 345.214 216.439 345.421 216.646C345.989 217.215 350.712 212.389 351.902 209.957C352.58 208.659 351.98 209.156 349.723 211.619C348.067 213.586 347.138 214.412 347.751 213.488C349.029 211.693 349.364 209.394 348.26 210.705C347.873 211.196 346.924 212.661 346.249 213.853Z" fill="#AE6D63"/>
<path d="M384.88 177.083C385.139 177.341 384.19 178.807 382.708 180.289C381.172 181.825 380.058 183.456 380.201 184.037C380.343 184.618 380.45 184.615 380.627 184.024C380.804 183.433 381.408 182.83 381.996 182.759C383.662 182.23 385.828 179.237 386.663 176.231L387.382 173.548L385.9 175.029C385.022 175.907 384.57 176.773 384.88 177.083Z" fill="#AE6D63"/>
<path d="M353.272 210.449C353.811 210.22 354.253 209.674 354.263 209.354C354.327 208.98 353.843 209.154 353.291 209.809C352.687 210.413 352.678 210.733 353.272 210.449Z" fill="#AE6D63"/>
<path d="M326.35 238.404C326.89 238.175 327.332 237.63 327.341 237.31C327.406 236.935 326.922 237.109 326.37 237.765C325.766 238.368 325.756 238.688 326.35 238.404Z" fill="#AE6D63"/>
<path d="M387.254 177.811C386.909 178.673 386.232 179.971 385.838 180.675C384.37 183.487 386.174 181.889 387.807 178.912C388.762 177.233 389.172 175.996 388.742 176.116C388.313 176.235 387.651 177 387.254 177.811Z" fill="#AE6D63"/>
<path d="M329.611 236.177C330.044 235.951 330.702 235.293 330.983 234.805C331.157 234.321 330.78 234.492 330.011 235.26C329.243 236.029 329.072 236.406 329.611 236.177Z" fill="#AE6D63"/>
<path d="M372.119 196.151C370.954 197.729 373.091 195.696 376.939 191.641C380.68 187.59 383.766 184.09 383.827 183.822C383.85 183.076 374.45 192.993 372.119 196.151Z" fill="#AE6D63"/>
<path d="M228.103 209.319C227.936 198.736 227.728 189.694 227.478 182.194C227.311 174.611 227.145 168.236 226.978 163.069C226.811 157.902 226.603 153.819 226.353 150.819C226.186 147.736 226.061 145.277 225.978 143.444C225.895 141.611 225.811 140.319 225.728 139.569C225.645 138.736 225.603 137.944 225.603 137.194C225.603 135.777 226.02 134.902 226.853 134.569C227.686 134.152 228.728 133.944 229.978 133.944C231.395 133.944 232.478 134.236 233.228 134.819C234.061 135.319 234.478 136.694 234.478 138.944L236.853 206.194C236.936 206.194 237.353 206.111 238.103 205.944C238.853 205.777 239.728 205.527 240.728 205.194C241.728 204.861 242.77 204.527 243.853 204.194C244.936 203.777 245.811 203.402 246.478 203.069C247.478 202.652 248.978 201.986 250.978 201.069C252.978 200.152 255.228 199.111 257.728 197.944C260.228 196.777 262.853 195.569 265.603 194.319C268.436 192.986 271.103 191.777 273.603 190.694C276.186 189.527 278.436 188.486 280.353 187.569C282.353 186.569 283.853 185.861 284.853 185.444H286.353C286.853 185.444 287.353 185.486 287.853 185.569C288.353 185.652 288.77 185.861 289.103 186.194C289.436 186.527 289.645 187.027 289.728 187.694C289.728 188.527 289.561 189.236 289.228 189.819C288.978 190.402 288.603 191.069 288.103 191.819C283.186 192.736 278.353 194.402 273.603 196.819C268.936 199.236 264.27 201.736 259.603 204.319C255.02 206.902 250.353 209.194 245.603 211.194C240.936 213.194 236.145 214.194 231.228 214.194C229.145 214.194 228.103 212.569 228.103 209.319Z" fill="#F0F3FF"/>
<path d="M123.328 412.754C123.203 404.817 123.047 398.035 122.859 392.41C122.734 386.723 122.609 381.942 122.484 378.067C122.359 374.192 122.203 371.129 122.015 368.879C121.89 366.567 121.797 364.723 121.734 363.348C121.672 361.973 121.609 361.004 121.547 360.442C121.484 359.817 121.453 359.223 121.453 358.66C121.453 357.598 121.765 356.942 122.39 356.692C123.015 356.379 123.797 356.223 124.734 356.223C125.797 356.223 126.609 356.442 127.172 356.879C127.797 357.254 128.109 358.285 128.109 359.973L129.89 410.41C129.953 410.41 130.265 410.348 130.828 410.223C131.39 410.098 132.047 409.91 132.797 409.66C133.547 409.41 134.328 409.16 135.14 408.91C135.953 408.598 136.609 408.317 137.109 408.067C137.859 407.754 138.984 407.254 140.484 406.567C141.984 405.879 143.672 405.098 145.547 404.223C147.422 403.348 149.39 402.442 151.453 401.504C153.578 400.504 155.578 399.598 157.453 398.785C159.39 397.91 161.078 397.129 162.515 396.442C164.015 395.692 165.14 395.16 165.89 394.848H167.015C167.39 394.848 167.765 394.879 168.14 394.942C168.515 395.004 168.828 395.16 169.078 395.41C169.328 395.66 169.484 396.035 169.547 396.535C169.547 397.16 169.422 397.692 169.172 398.129C168.984 398.567 168.703 399.067 168.328 399.629C164.64 400.317 161.015 401.567 157.453 403.379C153.953 405.192 150.453 407.067 146.953 409.004C143.515 410.942 140.015 412.66 136.453 414.16C132.953 415.66 129.359 416.41 125.672 416.41C124.109 416.41 123.328 415.192 123.328 412.754ZM199.359 413.973C199.047 412.348 198.765 410.41 198.515 408.16C198.328 405.848 198.109 403.535 197.859 401.223C197.609 398.848 197.297 396.629 196.922 394.567C196.609 392.504 196.109 390.817 195.422 389.504C192.234 396.004 189.422 401.129 186.984 404.879C184.547 408.567 182.39 411.223 180.515 412.848C178.703 414.41 177.172 415.16 175.922 415.098C174.672 415.035 173.64 414.473 172.828 413.41C172.015 412.348 171.422 411.004 171.047 409.379C170.734 407.692 170.515 406.129 170.39 404.692C170.39 403.317 170.703 401.379 171.328 398.879C171.953 396.379 172.797 393.66 173.859 390.723C174.922 387.723 176.172 384.692 177.609 381.629C179.109 378.567 180.703 375.785 182.39 373.285C184.078 370.785 185.828 368.723 187.64 367.098C189.453 365.473 191.265 364.66 193.078 364.66C195.765 364.223 197.734 364.817 198.984 366.442C200.297 368.004 200.547 370.66 199.734 374.41C199.734 378.535 199.89 382.067 200.203 385.004C200.578 387.942 200.953 390.754 201.328 393.442C201.765 396.129 202.14 398.942 202.453 401.879C202.828 404.817 203.015 408.348 203.015 412.473C203.015 413.223 202.922 413.879 202.734 414.442C202.609 414.942 201.859 415.192 200.484 415.192C200.297 415.192 200.047 415.035 199.734 414.723C199.484 414.41 199.359 414.16 199.359 413.973ZM194.297 372.067C193.609 371.067 192.672 370.973 191.484 371.785C190.297 372.598 189.047 373.942 187.734 375.817C186.422 377.692 185.078 379.942 183.703 382.567C182.328 385.192 181.047 387.848 179.859 390.535C178.672 393.223 177.64 395.785 176.765 398.223C175.89 400.598 175.297 402.567 174.984 404.129C174.984 406.379 175.328 407.66 176.015 407.973C176.703 408.223 177.547 407.848 178.547 406.848C179.547 405.848 180.672 404.41 181.922 402.535C183.234 400.66 184.484 398.66 185.672 396.535C186.922 394.41 188.078 392.348 189.14 390.348C190.265 388.348 191.14 386.723 191.765 385.473C192.328 384.16 192.765 382.942 193.078 381.817C193.39 380.692 193.64 379.629 193.828 378.629C194.078 377.567 194.203 376.504 194.203 375.442C194.265 374.379 194.297 373.254 194.297 372.067Z" fill="#F0F3FF"/>
<path d="M233.672 357.629C231.672 357.629 229.64 357.817 227.578 358.192C225.578 358.567 223.578 359.004 221.578 359.504C219.578 359.942 217.578 360.348 215.578 360.723C213.578 361.098 211.547 361.285 209.484 361.285C208.859 361.285 208.203 361.223 207.515 361.098C206.89 360.91 206.578 360.348 206.578 359.41C206.578 358.785 206.828 358.16 207.328 357.535C207.89 356.848 208.484 356.473 209.109 356.41L234.234 352.754C234.297 352.504 234.39 352.129 234.515 351.629C234.64 351.067 234.797 350.535 234.984 350.035C235.234 349.473 235.547 349.004 235.922 348.629C236.297 348.192 236.734 347.973 237.234 347.973C237.984 347.973 238.578 348.16 239.015 348.535C239.453 348.91 239.828 349.348 240.14 349.848C240.453 350.285 240.734 350.692 240.984 351.067C241.234 351.442 241.547 351.629 241.922 351.629H242.672C243.297 351.567 244.297 351.473 245.672 351.348C247.047 351.16 248.609 350.973 250.359 350.785C252.172 350.598 254.078 350.41 256.078 350.223C258.078 349.973 259.984 349.785 261.797 349.66C263.609 349.473 265.203 349.317 266.578 349.192C267.953 349.004 268.953 348.848 269.578 348.723C269.765 348.723 270.203 348.723 270.89 348.723C271.64 348.66 272.172 348.629 272.484 348.629C272.484 349.817 271.828 350.817 270.515 351.629C269.265 352.379 267.64 353.035 265.64 353.598C263.703 354.098 261.515 354.504 259.078 354.817C256.703 355.067 254.359 355.285 252.047 355.473C249.797 355.66 247.703 355.817 245.765 355.942C243.89 356.067 242.453 356.223 241.453 356.41C241.203 360.848 241.297 365.473 241.734 370.285C242.234 375.098 242.828 379.942 243.515 384.817C244.265 389.692 244.953 394.535 245.578 399.348C246.203 404.16 246.515 408.754 246.515 413.129C246.765 414.004 246.859 414.692 246.797 415.192C246.797 415.692 246.64 416.035 246.328 416.223C246.015 416.41 245.547 416.504 244.922 416.504C244.297 416.504 243.547 416.473 242.672 416.41C242.047 414.16 241.484 411.535 240.984 408.535C240.547 405.473 240.14 402.223 239.765 398.785C239.39 395.285 239.015 391.692 238.64 388.004C238.328 384.317 238.015 380.66 237.703 377.035C237.39 373.41 237.047 369.942 236.672 366.629C236.297 363.317 235.859 360.317 235.359 357.629H233.672ZM264.984 403.567C264.547 400.692 264.328 397.91 264.328 395.223C264.328 392.473 264.484 389.692 264.797 386.879C265.172 384.067 265.672 381.16 266.297 378.16C266.984 375.098 267.765 371.817 268.64 368.317C268.64 367.629 268.828 367.004 269.203 366.442C269.578 365.817 270.078 365.317 270.703 364.942C271.328 364.504 271.984 364.16 272.672 363.91C273.359 363.66 274.015 363.535 274.64 363.535C276.015 363.535 277.265 363.973 278.39 364.848C279.515 365.723 280.515 366.785 281.39 368.035C282.328 369.285 283.109 370.629 283.734 372.067C284.422 373.442 284.984 374.629 285.422 375.629C285.922 377.817 286.265 380.317 286.453 383.129C286.703 385.879 286.734 388.692 286.547 391.567C286.359 394.442 285.922 397.285 285.234 400.098C284.547 402.848 283.578 405.379 282.328 407.692C281.078 410.004 279.453 411.942 277.453 413.504C275.515 415.067 273.203 416.035 270.515 416.41C269.078 416.41 267.984 415.942 267.234 415.004C266.484 414.004 265.922 412.817 265.547 411.442C265.234 410.004 265.047 408.567 264.984 407.129C264.984 405.692 264.984 404.504 264.984 403.567ZM269.765 403.285C269.765 403.91 269.765 404.504 269.765 405.067C269.828 405.629 269.89 406.192 269.953 406.754C270.078 407.254 270.203 407.817 270.328 408.442C270.515 409.004 270.734 409.66 270.984 410.41H271.547C273.047 410.41 274.328 409.91 275.39 408.91C276.453 407.91 277.359 406.629 278.109 405.067C278.859 403.442 279.484 401.66 279.984 399.723C280.484 397.723 280.859 395.785 281.109 393.91C281.422 391.973 281.609 390.192 281.672 388.567C281.797 386.879 281.859 385.535 281.859 384.535V382.66C281.859 381.848 281.828 380.942 281.765 379.942C281.703 378.879 281.578 377.817 281.39 376.754C281.265 375.629 281.047 374.629 280.734 373.754C280.422 372.817 280.015 372.067 279.515 371.504C279.015 370.942 278.359 370.66 277.547 370.66C276.172 370.223 274.984 370.317 273.984 370.942C273.047 371.567 272.265 372.629 271.64 374.129C271.078 375.567 270.64 377.348 270.328 379.473C270.015 381.598 269.828 383.942 269.765 386.504C269.703 389.067 269.672 391.785 269.672 394.66C269.734 397.535 269.765 400.41 269.765 403.285ZM290.953 441.067C291.64 434.504 292.015 428.254 292.078 422.317C292.203 416.442 292.172 410.629 291.984 404.879C291.859 399.129 291.64 393.317 291.328 387.442C291.015 381.567 290.828 375.348 290.765 368.785C290.953 367.91 291.172 367.254 291.422 366.817C291.734 366.317 292.515 366.192 293.765 366.442C295.078 366.754 295.859 367.504 296.109 368.692C296.359 369.817 296.422 371.098 296.297 372.535C296.172 373.973 295.984 375.41 295.734 376.848C295.484 378.285 295.484 379.442 295.734 380.317C297.734 378.879 299.859 377.379 302.109 375.817C304.359 374.254 306.703 372.879 309.14 371.692C311.578 370.442 314.109 369.535 316.734 368.973C319.359 368.348 321.984 368.317 324.609 368.879C327.859 369.629 330.109 370.754 331.359 372.254C332.672 373.692 333.172 375.379 332.859 377.317C332.609 379.192 331.734 381.285 330.234 383.598C328.734 385.848 326.89 388.129 324.703 390.442C322.515 392.754 320.078 395.035 317.39 397.285C314.703 399.535 312.078 401.629 309.515 403.567C306.953 405.442 304.547 407.098 302.297 408.535C300.109 409.973 298.359 411.035 297.047 411.723C296.984 412.473 296.89 413.66 296.765 415.285C296.703 416.848 296.609 418.629 296.484 420.629C296.422 422.629 296.328 424.723 296.203 426.91C296.14 429.098 296.047 431.192 295.922 433.192C295.859 435.192 295.765 436.973 295.64 438.535C295.578 440.098 295.547 441.254 295.547 442.004C295.422 442.067 295.203 442.129 294.89 442.192C294.578 442.254 294.203 442.285 293.765 442.285C293.328 442.348 292.922 442.379 292.547 442.379C292.172 442.442 291.922 442.442 291.797 442.379C291.609 442.379 291.422 442.192 291.234 441.817C291.047 441.504 290.953 441.254 290.953 441.067ZM296.203 389.692C296.015 390.567 295.953 391.66 296.015 392.973C296.14 394.223 296.265 395.567 296.39 397.004C296.578 398.379 296.765 399.723 296.953 401.035C297.14 402.348 297.265 403.473 297.328 404.41C299.703 402.598 302.453 400.754 305.578 398.879C308.765 397.004 311.828 394.973 314.765 392.785C317.765 390.598 320.422 388.16 322.734 385.473C325.047 382.785 326.578 379.754 327.328 376.379C327.578 375.067 327.453 374.192 326.953 373.754C326.515 373.254 325.734 372.91 324.609 372.723C322.234 372.223 319.515 372.41 316.453 373.285C313.39 374.098 310.422 375.317 307.547 376.942C304.734 378.567 302.265 380.504 300.14 382.754C298.015 385.004 296.703 387.317 296.203 389.692ZM338.484 414.535C338.484 410.473 338.39 406.192 338.203 401.692C338.078 397.192 337.922 392.66 337.734 388.098C337.609 383.473 337.578 378.942 337.64 374.504C337.703 370.067 337.984 365.91 338.484 362.035C338.609 361.973 338.89 361.942 339.328 361.942C339.828 361.879 340.172 361.848 340.359 361.848C341.234 361.848 341.922 362.004 342.422 362.317C342.984 362.567 343.265 363.16 343.265 364.098C343.265 367.785 343.234 371.817 343.172 376.192C343.172 380.504 343.14 384.91 343.078 389.41C343.078 393.848 343.078 398.254 343.078 402.629C343.078 407.004 343.14 410.973 343.265 414.535C343.328 415.598 343.109 416.285 342.609 416.598C342.172 416.973 341.609 417.16 340.922 417.16C340.172 417.16 339.547 416.973 339.047 416.598C338.547 416.285 338.359 415.598 338.484 414.535ZM336.422 347.41C336.422 346.66 336.672 346.16 337.172 345.91C337.672 345.66 338.234 345.535 338.859 345.535C340.109 345.535 340.89 345.942 341.203 346.754C341.515 347.567 341.672 348.504 341.672 349.567C341.297 350.254 340.828 350.754 340.265 351.067C339.703 351.317 339.109 351.379 338.484 351.254C337.922 351.067 337.422 350.66 336.984 350.035C336.609 349.41 336.422 348.535 336.422 347.41ZM376.359 413.973C376.047 412.348 375.765 410.41 375.515 408.16C375.328 405.848 375.109 403.535 374.859 401.223C374.609 398.848 374.297 396.629 373.922 394.567C373.609 392.504 373.109 390.817 372.422 389.504C369.234 396.004 366.422 401.129 363.984 404.879C361.547 408.567 359.39 411.223 357.515 412.848C355.703 414.41 354.172 415.16 352.922 415.098C351.672 415.035 350.64 414.473 349.828 413.41C349.015 412.348 348.422 411.004 348.047 409.379C347.734 407.692 347.515 406.129 347.39 404.692C347.39 403.317 347.703 401.379 348.328 398.879C348.953 396.379 349.797 393.66 350.859 390.723C351.922 387.723 353.172 384.692 354.609 381.629C356.109 378.567 357.703 375.785 359.39 373.285C361.078 370.785 362.828 368.723 364.64 367.098C366.453 365.473 368.265 364.66 370.078 364.66C372.765 364.223 374.734 364.817 375.984 366.442C377.297 368.004 377.547 370.66 376.734 374.41C376.734 378.535 376.89 382.067 377.203 385.004C377.578 387.942 377.953 390.754 378.328 393.442C378.765 396.129 379.14 398.942 379.453 401.879C379.828 404.817 380.015 408.348 380.015 412.473C380.015 413.223 379.922 413.879 379.734 414.442C379.609 414.942 378.859 415.192 377.484 415.192C377.297 415.192 377.047 415.035 376.734 414.723C376.484 414.41 376.359 414.16 376.359 413.973ZM371.297 372.067C370.609 371.067 369.672 370.973 368.484 371.785C367.297 372.598 366.047 373.942 364.734 375.817C363.422 377.692 362.078 379.942 360.703 382.567C359.328 385.192 358.047 387.848 356.859 390.535C355.672 393.223 354.64 395.785 353.765 398.223C352.89 400.598 352.297 402.567 351.984 404.129C351.984 406.379 352.328 407.66 353.015 407.973C353.703 408.223 354.547 407.848 355.547 406.848C356.547 405.848 357.672 404.41 358.922 402.535C360.234 400.66 361.484 398.66 362.672 396.535C363.922 394.41 365.078 392.348 366.14 390.348C367.265 388.348 368.14 386.723 368.765 385.473C369.328 384.16 369.765 382.942 370.078 381.817C370.39 380.692 370.64 379.629 370.828 378.629C371.078 377.567 371.203 376.504 371.203 375.442C371.265 374.379 371.297 373.254 371.297 372.067Z" fill="#5FB6AB"/>
</svg>
